<mxfile host="app.diagrams.net" modified="2023-01-29T20:15:54.803Z" agent="5.0 (Windows NT 10.0; Win64; x64) AppleWebKit/537.36 (KHTML, like Gecko) Chrome/109.0.0.0 Safari/537.36" etag="jNNBbAyhNj5WEIIENLSx" version="20.8.13" type="github">
  <diagram id="F8TjGcy1XR5OSjqbTvsC" name="Page-1">
    <mxGraphModel dx="4924" dy="5182" grid="1" gridSize="10" guides="1" tooltips="1" connect="1" arrows="0" fold="1" page="1" pageScale="1" pageWidth="827" pageHeight="1169" math="0" shadow="1">
      <root>
        <mxCell id="0" />
        <mxCell id="1" parent="0" />
        <mxCell id="pZHTBgWdNV2E3V0j2XPj-3" value="&lt;font style=&quot;font-size: 32px;&quot;&gt;Internet&lt;/font&gt;" style="sketch=0;outlineConnect=0;fontColor=#232F3E;gradientColor=none;strokeColor=#232F3E;fillColor=#ffffff;dashed=0;verticalLabelPosition=bottom;verticalAlign=top;align=center;html=1;fontSize=12;fontStyle=0;aspect=fixed;shape=mxgraph.aws4.resourceIcon;resIcon=mxgraph.aws4.internet;" vertex="1" parent="1">
          <mxGeometry x="-37" y="4080" width="370" height="370" as="geometry" />
        </mxCell>
        <mxCell id="vLO9-Lh8UrGpiSDHTogs-36" style="edgeStyle=none;html=1;labelBackgroundColor=none;endArrow=none;strokeWidth=2;fontFamily=Verdana;fontSize=28;fontColor=#0066CC;rounded=0;strokeColor=#6881B3;exitX=0.215;exitY=0.039;exitDx=0;exitDy=0;exitPerimeter=0;" edge="1" parent="1" source="vLO9-Lh8UrGpiSDHTogs-43" target="vLO9-Lh8UrGpiSDHTogs-44">
          <mxGeometry relative="1" as="geometry">
            <mxPoint x="-2200" y="550" as="sourcePoint" />
          </mxGeometry>
        </mxCell>
        <mxCell id="vLO9-Lh8UrGpiSDHTogs-37" style="edgeStyle=none;html=1;labelBackgroundColor=none;endArrow=none;strokeWidth=2;fontFamily=Verdana;fontSize=28;fontColor=#0066CC;rounded=0;strokeColor=#6881B3;" edge="1" parent="1" source="vLO9-Lh8UrGpiSDHTogs-43" target="vLO9-Lh8UrGpiSDHTogs-45">
          <mxGeometry relative="1" as="geometry" />
        </mxCell>
        <mxCell id="vLO9-Lh8UrGpiSDHTogs-38" style="edgeStyle=none;html=1;labelBackgroundColor=none;endArrow=none;strokeWidth=2;fontFamily=Verdana;fontSize=28;fontColor=#0066CC;rounded=0;strokeColor=#6881B3;shadow=0;" edge="1" parent="1" source="vLO9-Lh8UrGpiSDHTogs-43" target="vLO9-Lh8UrGpiSDHTogs-46">
          <mxGeometry relative="1" as="geometry" />
        </mxCell>
        <mxCell id="vLO9-Lh8UrGpiSDHTogs-39" style="edgeStyle=none;html=1;labelBackgroundColor=none;endArrow=none;strokeWidth=2;fontFamily=Verdana;fontSize=28;fontColor=#0066CC;rounded=0;strokeColor=#6881B3;shadow=0;" edge="1" parent="1" source="vLO9-Lh8UrGpiSDHTogs-43" target="vLO9-Lh8UrGpiSDHTogs-49">
          <mxGeometry relative="1" as="geometry" />
        </mxCell>
        <mxCell id="vLO9-Lh8UrGpiSDHTogs-40" style="edgeStyle=none;html=1;labelBackgroundColor=none;endArrow=none;strokeWidth=2;fontFamily=Verdana;fontSize=28;fontColor=#0066CC;rounded=0;strokeColor=#6881B3;shadow=0;" edge="1" parent="1" source="vLO9-Lh8UrGpiSDHTogs-43" target="vLO9-Lh8UrGpiSDHTogs-48">
          <mxGeometry relative="1" as="geometry" />
        </mxCell>
        <mxCell id="vLO9-Lh8UrGpiSDHTogs-41" style="edgeStyle=none;html=1;labelBackgroundColor=none;endArrow=none;strokeWidth=2;fontFamily=Verdana;fontSize=28;fontColor=#0066CC;rounded=0;strokeColor=#6881B3;shadow=0;" edge="1" parent="1" source="vLO9-Lh8UrGpiSDHTogs-43" target="vLO9-Lh8UrGpiSDHTogs-47">
          <mxGeometry relative="1" as="geometry" />
        </mxCell>
        <mxCell id="vLO9-Lh8UrGpiSDHTogs-42" style="edgeStyle=none;html=1;labelBackgroundColor=none;endArrow=none;strokeWidth=2;fontFamily=Verdana;fontSize=28;fontColor=#0066CC;rounded=0;strokeColor=#6881B3;entryX=0.98;entryY=0.98;entryDx=0;entryDy=0;entryPerimeter=0;shadow=0;" edge="1" parent="1" source="vLO9-Lh8UrGpiSDHTogs-43" target="vLO9-Lh8UrGpiSDHTogs-59">
          <mxGeometry relative="1" as="geometry">
            <mxPoint x="-1110" y="240" as="targetPoint" />
          </mxGeometry>
        </mxCell>
        <mxCell id="vLO9-Lh8UrGpiSDHTogs-50" style="edgeStyle=none;html=1;labelBackgroundColor=none;endArrow=none;strokeWidth=2;fontFamily=Verdana;fontSize=28;fontColor=#0066CC;rounded=0;strokeColor=#6881B3;shadow=0;" edge="1" parent="1" source="vLO9-Lh8UrGpiSDHTogs-51" target="vLO9-Lh8UrGpiSDHTogs-43">
          <mxGeometry relative="1" as="geometry" />
        </mxCell>
        <mxCell id="vLO9-Lh8UrGpiSDHTogs-54" style="edgeStyle=none;html=1;labelBackgroundColor=none;endArrow=none;strokeWidth=2;fontFamily=Verdana;fontSize=28;fontColor=#0066CC;rounded=0;strokeColor=#6881B3;exitX=0.05;exitY=0.05;exitDx=0;exitDy=0;exitPerimeter=0;entryX=1;entryY=0.5;entryDx=0;entryDy=0;entryPerimeter=0;shadow=0;" edge="1" parent="1" source="vLO9-Lh8UrGpiSDHTogs-43" target="vLO9-Lh8UrGpiSDHTogs-52">
          <mxGeometry relative="1" as="geometry">
            <mxPoint x="-1945.0000000000002" y="771.4999999999995" as="sourcePoint" />
            <mxPoint x="-2175.648535564854" y="209" as="targetPoint" />
          </mxGeometry>
        </mxCell>
        <mxCell id="vLO9-Lh8UrGpiSDHTogs-61" style="edgeStyle=none;html=1;labelBackgroundColor=none;endArrow=none;strokeWidth=2;fontFamily=Verdana;fontSize=28;fontColor=#0066CC;rounded=0;strokeColor=#6881B3;entryX=0.9;entryY=1;entryDx=0;entryDy=0;entryPerimeter=0;exitX=0.323;exitY=0.133;exitDx=0;exitDy=0;exitPerimeter=0;shadow=0;" edge="1" parent="1" source="vLO9-Lh8UrGpiSDHTogs-43" target="vLO9-Lh8UrGpiSDHTogs-60">
          <mxGeometry relative="1" as="geometry">
            <mxPoint x="-600.5316973415133" y="740" as="sourcePoint" />
            <mxPoint x="-1002" y="168.20000000000027" as="targetPoint" />
          </mxGeometry>
        </mxCell>
        <mxCell id="vLO9-Lh8UrGpiSDHTogs-66" value="printer" style="fontColor=#0066CC;verticalAlign=top;verticalLabelPosition=bottom;labelPosition=center;align=center;html=1;fillColor=#CCCCCC;strokeColor=#6881B3;gradientColor=none;gradientDirection=north;strokeWidth=2;shape=mxgraph.networks.printer;rounded=1;shadow=0;comic=0;labelBackgroundColor=#ffffff;" vertex="1" parent="1">
          <mxGeometry x="-180" y="230" width="100" height="100" as="geometry" />
        </mxCell>
        <mxCell id="vLO9-Lh8UrGpiSDHTogs-69" style="edgeStyle=none;html=1;labelBackgroundColor=none;endArrow=none;strokeWidth=2;fontFamily=Verdana;fontSize=28;fontColor=#0066CC;rounded=0;strokeColor=#6881B3;entryX=0.95;entryY=1;entryDx=0;entryDy=0;entryPerimeter=0;exitX=0.5;exitY=0;exitDx=0;exitDy=0;exitPerimeter=0;" edge="1" parent="1" source="vLO9-Lh8UrGpiSDHTogs-43" target="vLO9-Lh8UrGpiSDHTogs-62">
          <mxGeometry relative="1" as="geometry">
            <mxPoint x="-520" y="900" as="sourcePoint" />
            <mxPoint x="-790" y="370" as="targetPoint" />
          </mxGeometry>
        </mxCell>
        <mxCell id="vLO9-Lh8UrGpiSDHTogs-70" value="" style="endArrow=none;html=1;rounded=0;exitX=0.5;exitY=0;exitDx=0;exitDy=0;exitPerimeter=0;shadow=0;strokeColor=#6881B3;strokeWidth=2;entryX=0.9;entryY=1;entryDx=0;entryDy=0;entryPerimeter=0;" edge="1" parent="1" source="vLO9-Lh8UrGpiSDHTogs-43" target="vLO9-Lh8UrGpiSDHTogs-66">
          <mxGeometry width="50" height="50" relative="1" as="geometry">
            <mxPoint x="-370" y="390" as="sourcePoint" />
            <mxPoint x="-40" y="320" as="targetPoint" />
          </mxGeometry>
        </mxCell>
        <mxCell id="vLO9-Lh8UrGpiSDHTogs-71" value="" style="endArrow=none;html=1;rounded=0;entryX=0.98;entryY=0.98;entryDx=0;entryDy=0;entryPerimeter=0;exitX=0.5;exitY=0;exitDx=0;exitDy=0;exitPerimeter=0;shadow=0;strokeColor=#6881B3;strokeWidth=2;" edge="1" parent="1" source="vLO9-Lh8UrGpiSDHTogs-43" target="vLO9-Lh8UrGpiSDHTogs-65">
          <mxGeometry width="50" height="50" relative="1" as="geometry">
            <mxPoint x="-370" y="390" as="sourcePoint" />
            <mxPoint x="-320" y="340" as="targetPoint" />
          </mxGeometry>
        </mxCell>
        <mxCell id="vLO9-Lh8UrGpiSDHTogs-72" value="" style="endArrow=none;html=1;rounded=0;exitX=0.95;exitY=1;exitDx=0;exitDy=0;exitPerimeter=0;entryX=0.403;entryY=0.026;entryDx=0;entryDy=0;entryPerimeter=0;strokeColor=#6881B3;shadow=0;strokeWidth=2;" edge="1" parent="1" source="vLO9-Lh8UrGpiSDHTogs-63" target="vLO9-Lh8UrGpiSDHTogs-43">
          <mxGeometry width="50" height="50" relative="1" as="geometry">
            <mxPoint x="-460" y="380" as="sourcePoint" />
            <mxPoint x="-410" y="330" as="targetPoint" />
          </mxGeometry>
        </mxCell>
        <mxCell id="vLO9-Lh8UrGpiSDHTogs-73" value="" style="endArrow=none;html=1;rounded=0;exitX=0.95;exitY=1;exitDx=0;exitDy=0;exitPerimeter=0;entryX=0.5;entryY=0;entryDx=0;entryDy=0;entryPerimeter=0;strokeColor=#6881B3;shadow=0;strokeWidth=2;" edge="1" parent="1" source="vLO9-Lh8UrGpiSDHTogs-64" target="vLO9-Lh8UrGpiSDHTogs-43">
          <mxGeometry width="50" height="50" relative="1" as="geometry">
            <mxPoint x="-460" y="380" as="sourcePoint" />
            <mxPoint x="-410" y="330" as="targetPoint" />
          </mxGeometry>
        </mxCell>
        <mxCell id="vLO9-Lh8UrGpiSDHTogs-80" value="" style="fontColor=#0066CC;verticalAlign=top;verticalLabelPosition=bottom;labelPosition=center;align=center;html=1;outlineConnect=0;fillColor=#CCCCCC;strokeColor=#6881B3;gradientColor=none;gradientDirection=north;strokeWidth=2;shape=mxgraph.networks.phone_2;" vertex="1" parent="1">
          <mxGeometry x="11" y="10" width="100" height="90" as="geometry" />
        </mxCell>
        <mxCell id="vLO9-Lh8UrGpiSDHTogs-81" value="" style="endArrow=none;html=1;rounded=0;shadow=0;strokeColor=#6881B3;strokeWidth=2;exitX=0.98;exitY=0.98;exitDx=0;exitDy=0;exitPerimeter=0;entryX=0.5;entryY=0;entryDx=0;entryDy=0;entryPerimeter=0;" edge="1" parent="1" source="vLO9-Lh8UrGpiSDHTogs-80" target="vLO9-Lh8UrGpiSDHTogs-43">
          <mxGeometry width="50" height="50" relative="1" as="geometry">
            <mxPoint x="260" y="790" as="sourcePoint" />
            <mxPoint x="310" y="740" as="targetPoint" />
          </mxGeometry>
        </mxCell>
        <mxCell id="vLO9-Lh8UrGpiSDHTogs-82" value="" style="endArrow=none;html=1;rounded=0;shadow=0;strokeColor=#6881B3;strokeWidth=2;exitX=0.95;exitY=1;exitDx=0;exitDy=0;exitPerimeter=0;entryX=0.5;entryY=0;entryDx=0;entryDy=0;entryPerimeter=0;" edge="1" parent="1" source="vLO9-Lh8UrGpiSDHTogs-76" target="vLO9-Lh8UrGpiSDHTogs-43">
          <mxGeometry width="50" height="50" relative="1" as="geometry">
            <mxPoint x="260" y="790" as="sourcePoint" />
            <mxPoint x="310" y="740" as="targetPoint" />
          </mxGeometry>
        </mxCell>
        <mxCell id="vLO9-Lh8UrGpiSDHTogs-83" value="" style="endArrow=none;html=1;rounded=0;shadow=0;strokeColor=#6881B3;strokeWidth=2;exitX=0.9;exitY=1;exitDx=0;exitDy=0;exitPerimeter=0;entryX=0.5;entryY=0;entryDx=0;entryDy=0;entryPerimeter=0;" edge="1" parent="1" source="vLO9-Lh8UrGpiSDHTogs-77" target="vLO9-Lh8UrGpiSDHTogs-43">
          <mxGeometry width="50" height="50" relative="1" as="geometry">
            <mxPoint x="260" y="790" as="sourcePoint" />
            <mxPoint x="310" y="740" as="targetPoint" />
          </mxGeometry>
        </mxCell>
        <mxCell id="vLO9-Lh8UrGpiSDHTogs-84" value="" style="endArrow=none;html=1;rounded=0;shadow=0;strokeColor=#6881B3;strokeWidth=2;exitX=0.9;exitY=1;exitDx=0;exitDy=0;exitPerimeter=0;entryX=0.5;entryY=0;entryDx=0;entryDy=0;entryPerimeter=0;" edge="1" parent="1" source="vLO9-Lh8UrGpiSDHTogs-78" target="vLO9-Lh8UrGpiSDHTogs-43">
          <mxGeometry width="50" height="50" relative="1" as="geometry">
            <mxPoint x="260" y="790" as="sourcePoint" />
            <mxPoint x="310" y="740" as="targetPoint" />
          </mxGeometry>
        </mxCell>
        <mxCell id="vLO9-Lh8UrGpiSDHTogs-85" value="" style="endArrow=none;html=1;rounded=0;shadow=1;strokeColor=#6881B3;strokeWidth=2;exitX=0.9;exitY=1;exitDx=0;exitDy=0;exitPerimeter=0;entryX=0.5;entryY=0;entryDx=0;entryDy=0;entryPerimeter=0;" edge="1" parent="1" source="vLO9-Lh8UrGpiSDHTogs-79" target="vLO9-Lh8UrGpiSDHTogs-43">
          <mxGeometry width="50" height="50" relative="1" as="geometry">
            <mxPoint x="260" y="790" as="sourcePoint" />
            <mxPoint x="310" y="740" as="targetPoint" />
          </mxGeometry>
        </mxCell>
        <mxCell id="vLO9-Lh8UrGpiSDHTogs-86" value="" style="endArrow=none;html=1;rounded=0;shadow=0;strokeColor=#6881B3;strokeWidth=2;exitX=0.95;exitY=1;exitDx=0;exitDy=0;exitPerimeter=0;entryX=0.05;entryY=0.05;entryDx=0;entryDy=0;entryPerimeter=0;" edge="1" parent="1" source="vLO9-Lh8UrGpiSDHTogs-57" target="vLO9-Lh8UrGpiSDHTogs-43">
          <mxGeometry width="50" height="50" relative="1" as="geometry">
            <mxPoint x="-680" y="380" as="sourcePoint" />
            <mxPoint x="-100" y="850" as="targetPoint" />
          </mxGeometry>
        </mxCell>
        <mxCell id="vLO9-Lh8UrGpiSDHTogs-87" value="" style="endArrow=none;html=1;rounded=0;shadow=0;strokeColor=#6881B3;strokeWidth=2;exitX=0.95;exitY=1;exitDx=0;exitDy=0;exitPerimeter=0;entryX=0.05;entryY=0.05;entryDx=0;entryDy=0;entryPerimeter=0;" edge="1" parent="1" source="vLO9-Lh8UrGpiSDHTogs-56" target="vLO9-Lh8UrGpiSDHTogs-43">
          <mxGeometry width="50" height="50" relative="1" as="geometry">
            <mxPoint x="-680" y="380" as="sourcePoint" />
            <mxPoint x="-130" y="870" as="targetPoint" />
          </mxGeometry>
        </mxCell>
        <mxCell id="vLO9-Lh8UrGpiSDHTogs-88" value="" style="endArrow=none;html=1;rounded=0;shadow=0;strokeColor=#6881B3;strokeWidth=2;exitX=0.98;exitY=0.98;exitDx=0;exitDy=0;exitPerimeter=0;entryX=0.05;entryY=0.05;entryDx=0;entryDy=0;entryPerimeter=0;" edge="1" parent="1" source="vLO9-Lh8UrGpiSDHTogs-74" target="vLO9-Lh8UrGpiSDHTogs-43">
          <mxGeometry width="50" height="50" relative="1" as="geometry">
            <mxPoint x="-610" y="580" as="sourcePoint" />
            <mxPoint x="180" y="770" as="targetPoint" />
          </mxGeometry>
        </mxCell>
        <mxCell id="vLO9-Lh8UrGpiSDHTogs-226" style="edgeStyle=none;rounded=0;orthogonalLoop=1;jettySize=auto;html=1;exitX=0.95;exitY=1;exitDx=0;exitDy=0;exitPerimeter=0;entryX=0.05;entryY=0.05;entryDx=0;entryDy=0;entryPerimeter=0;shadow=0;strokeColor=#6881B3;strokeWidth=2;endArrow=none;endFill=0;" edge="1" parent="1" source="vLO9-Lh8UrGpiSDHTogs-89" target="vLO9-Lh8UrGpiSDHTogs-132">
          <mxGeometry relative="1" as="geometry" />
        </mxCell>
        <mxCell id="vLO9-Lh8UrGpiSDHTogs-89" value="workstation" style="fontColor=#0066CC;verticalAlign=top;verticalLabelPosition=bottom;labelPosition=center;align=center;html=1;fillColor=#CCCCCC;strokeColor=#6881B3;gradientColor=none;gradientDirection=north;strokeWidth=2;shape=mxgraph.networks.pc;rounded=1;shadow=0;comic=0;labelBackgroundColor=#ffffff;" vertex="1" parent="1">
          <mxGeometry x="1150" y="160" width="100" height="70" as="geometry" />
        </mxCell>
        <mxCell id="vLO9-Lh8UrGpiSDHTogs-227" style="edgeStyle=none;rounded=0;orthogonalLoop=1;jettySize=auto;html=1;exitX=0.95;exitY=1;exitDx=0;exitDy=0;exitPerimeter=0;entryX=0.05;entryY=0.05;entryDx=0;entryDy=0;entryPerimeter=0;shadow=0;strokeColor=#6881B3;strokeWidth=2;endArrow=none;endFill=0;" edge="1" parent="1" source="vLO9-Lh8UrGpiSDHTogs-90" target="vLO9-Lh8UrGpiSDHTogs-132">
          <mxGeometry relative="1" as="geometry" />
        </mxCell>
        <mxCell id="vLO9-Lh8UrGpiSDHTogs-90" value="workstation" style="fontColor=#0066CC;verticalAlign=top;verticalLabelPosition=bottom;labelPosition=center;align=center;html=1;fillColor=#CCCCCC;strokeColor=#6881B3;gradientColor=none;gradientDirection=north;strokeWidth=2;shape=mxgraph.networks.pc;rounded=1;shadow=0;comic=0;labelBackgroundColor=#ffffff;" vertex="1" parent="1">
          <mxGeometry x="1000" y="160" width="100" height="70" as="geometry" />
        </mxCell>
        <mxCell id="vLO9-Lh8UrGpiSDHTogs-230" style="edgeStyle=none;rounded=0;orthogonalLoop=1;jettySize=auto;html=1;exitX=0.98;exitY=0.98;exitDx=0;exitDy=0;exitPerimeter=0;entryX=0.05;entryY=0.05;entryDx=0;entryDy=0;entryPerimeter=0;shadow=0;strokeColor=#6881B3;strokeWidth=2;endArrow=none;endFill=0;" edge="1" parent="1" source="vLO9-Lh8UrGpiSDHTogs-91" target="vLO9-Lh8UrGpiSDHTogs-132">
          <mxGeometry relative="1" as="geometry" />
        </mxCell>
        <mxCell id="vLO9-Lh8UrGpiSDHTogs-91" value="" style="fontColor=#0066CC;verticalAlign=top;verticalLabelPosition=bottom;labelPosition=center;align=center;html=1;outlineConnect=0;fillColor=#CCCCCC;strokeColor=#6881B3;gradientColor=none;gradientDirection=north;strokeWidth=2;shape=mxgraph.networks.phone_2;" vertex="1" parent="1">
          <mxGeometry x="480" y="49" width="100" height="90" as="geometry" />
        </mxCell>
        <mxCell id="vLO9-Lh8UrGpiSDHTogs-229" style="edgeStyle=none;rounded=0;orthogonalLoop=1;jettySize=auto;html=1;exitX=0.98;exitY=0.98;exitDx=0;exitDy=0;exitPerimeter=0;entryX=0.05;entryY=0.05;entryDx=0;entryDy=0;entryPerimeter=0;shadow=0;strokeColor=#6881B3;strokeWidth=2;endArrow=none;endFill=0;" edge="1" parent="1" source="vLO9-Lh8UrGpiSDHTogs-92" target="vLO9-Lh8UrGpiSDHTogs-132">
          <mxGeometry relative="1" as="geometry" />
        </mxCell>
        <mxCell id="vLO9-Lh8UrGpiSDHTogs-92" value="" style="fontColor=#0066CC;verticalAlign=top;verticalLabelPosition=bottom;labelPosition=center;align=center;html=1;outlineConnect=0;fillColor=#CCCCCC;strokeColor=#6881B3;gradientColor=none;gradientDirection=north;strokeWidth=2;shape=mxgraph.networks.phone_2;" vertex="1" parent="1">
          <mxGeometry x="630" y="180" width="100" height="90" as="geometry" />
        </mxCell>
        <mxCell id="vLO9-Lh8UrGpiSDHTogs-228" style="edgeStyle=none;rounded=0;orthogonalLoop=1;jettySize=auto;html=1;exitX=0.98;exitY=0.98;exitDx=0;exitDy=0;exitPerimeter=0;entryX=0.05;entryY=0.05;entryDx=0;entryDy=0;entryPerimeter=0;shadow=0;strokeColor=#6881B3;strokeWidth=2;endArrow=none;endFill=0;" edge="1" parent="1" source="vLO9-Lh8UrGpiSDHTogs-93" target="vLO9-Lh8UrGpiSDHTogs-132">
          <mxGeometry relative="1" as="geometry" />
        </mxCell>
        <mxCell id="vLO9-Lh8UrGpiSDHTogs-93" value="" style="fontColor=#0066CC;verticalAlign=top;verticalLabelPosition=bottom;labelPosition=center;align=center;html=1;outlineConnect=0;fillColor=#CCCCCC;strokeColor=#6881B3;gradientColor=none;gradientDirection=north;strokeWidth=2;shape=mxgraph.networks.phone_2;" vertex="1" parent="1">
          <mxGeometry x="770" y="20" width="100" height="90" as="geometry" />
        </mxCell>
        <mxCell id="vLO9-Lh8UrGpiSDHTogs-225" style="edgeStyle=none;rounded=0;orthogonalLoop=1;jettySize=auto;html=1;entryX=0.05;entryY=0.05;entryDx=0;entryDy=0;entryPerimeter=0;shadow=0;strokeColor=#6881B3;strokeWidth=2;endArrow=none;endFill=0;exitX=0.95;exitY=1;exitDx=0;exitDy=0;exitPerimeter=0;" edge="1" parent="1" source="vLO9-Lh8UrGpiSDHTogs-94" target="vLO9-Lh8UrGpiSDHTogs-132">
          <mxGeometry relative="1" as="geometry" />
        </mxCell>
        <mxCell id="vLO9-Lh8UrGpiSDHTogs-94" value="workstation" style="fontColor=#0066CC;verticalAlign=top;verticalLabelPosition=bottom;labelPosition=center;align=center;html=1;fillColor=#CCCCCC;strokeColor=#6881B3;gradientColor=none;gradientDirection=north;strokeWidth=2;shape=mxgraph.networks.pc;rounded=1;shadow=0;comic=0;labelBackgroundColor=#ffffff;" vertex="1" parent="1">
          <mxGeometry x="1070" y="330" width="100" height="70" as="geometry" />
        </mxCell>
        <mxCell id="vLO9-Lh8UrGpiSDHTogs-97" value="workstation" style="fontColor=#0066CC;verticalAlign=top;verticalLabelPosition=bottom;labelPosition=center;align=center;html=1;fillColor=#CCCCCC;strokeColor=#6881B3;gradientColor=none;gradientDirection=north;strokeWidth=2;shape=mxgraph.networks.pc;rounded=1;shadow=0;comic=0;labelBackgroundColor=#ffffff;" vertex="1" parent="1">
          <mxGeometry x="1530" y="230" width="100" height="70" as="geometry" />
        </mxCell>
        <mxCell id="vLO9-Lh8UrGpiSDHTogs-98" value="" style="fontColor=#0066CC;verticalAlign=top;verticalLabelPosition=bottom;labelPosition=center;align=center;html=1;outlineConnect=0;fillColor=#CCCCCC;strokeColor=#6881B3;gradientColor=none;gradientDirection=north;strokeWidth=2;shape=mxgraph.networks.phone_2;" vertex="1" parent="1">
          <mxGeometry x="1440" y="70" width="100" height="90" as="geometry" />
        </mxCell>
        <mxCell id="vLO9-Lh8UrGpiSDHTogs-99" value="workstation" style="fontColor=#0066CC;verticalAlign=top;verticalLabelPosition=bottom;labelPosition=center;align=center;html=1;fillColor=#CCCCCC;strokeColor=#6881B3;gradientColor=none;gradientDirection=north;strokeWidth=2;shape=mxgraph.networks.pc;rounded=1;shadow=0;comic=0;labelBackgroundColor=#ffffff;" vertex="1" parent="1">
          <mxGeometry x="1600" y="400" width="100" height="70" as="geometry" />
        </mxCell>
        <mxCell id="vLO9-Lh8UrGpiSDHTogs-125" style="edgeStyle=none;rounded=0;orthogonalLoop=1;jettySize=auto;html=1;exitX=1;exitY=0.07;exitDx=0;exitDy=0;exitPerimeter=0;shadow=0;strokeColor=#6881B3;strokeWidth=2;endArrow=none;endFill=0;entryX=0.045;entryY=0.716;entryDx=0;entryDy=0;entryPerimeter=0;" edge="1" parent="1" source="vLO9-Lh8UrGpiSDHTogs-101" target="vLO9-Lh8UrGpiSDHTogs-43">
          <mxGeometry relative="1" as="geometry">
            <mxPoint x="360" y="750" as="targetPoint" />
          </mxGeometry>
        </mxCell>
        <mxCell id="vLO9-Lh8UrGpiSDHTogs-121" style="edgeStyle=none;rounded=0;orthogonalLoop=1;jettySize=auto;html=1;exitX=1;exitY=0.07;exitDx=0;exitDy=0;exitPerimeter=0;entryX=0.1;entryY=1;entryDx=0;entryDy=0;entryPerimeter=0;shadow=0;strokeColor=#6881B3;strokeWidth=2;endArrow=none;endFill=0;" edge="1" parent="1" source="vLO9-Lh8UrGpiSDHTogs-103" target="vLO9-Lh8UrGpiSDHTogs-43">
          <mxGeometry relative="1" as="geometry" />
        </mxCell>
        <mxCell id="vLO9-Lh8UrGpiSDHTogs-120" style="edgeStyle=none;rounded=0;orthogonalLoop=1;jettySize=auto;html=1;exitX=1;exitY=0.07;exitDx=0;exitDy=0;exitPerimeter=0;entryX=0.1;entryY=1;entryDx=0;entryDy=0;entryPerimeter=0;shadow=0;strokeColor=#6881B3;strokeWidth=2;endArrow=none;endFill=0;" edge="1" parent="1" source="vLO9-Lh8UrGpiSDHTogs-105" target="vLO9-Lh8UrGpiSDHTogs-43">
          <mxGeometry relative="1" as="geometry" />
        </mxCell>
        <mxCell id="vLO9-Lh8UrGpiSDHTogs-126" style="edgeStyle=none;rounded=0;orthogonalLoop=1;jettySize=auto;html=1;exitX=1;exitY=0.07;exitDx=0;exitDy=0;exitPerimeter=0;entryX=0.1;entryY=1;entryDx=0;entryDy=0;entryPerimeter=0;shadow=0;strokeColor=#6881B3;strokeWidth=2;endArrow=none;endFill=0;" edge="1" parent="1" source="vLO9-Lh8UrGpiSDHTogs-106" target="vLO9-Lh8UrGpiSDHTogs-43">
          <mxGeometry relative="1" as="geometry" />
        </mxCell>
        <mxCell id="vLO9-Lh8UrGpiSDHTogs-124" style="edgeStyle=none;rounded=0;orthogonalLoop=1;jettySize=auto;html=1;exitX=0.98;exitY=0.12;exitDx=0;exitDy=0;exitPerimeter=0;entryX=0.03;entryY=0.865;entryDx=0;entryDy=0;entryPerimeter=0;shadow=0;strokeColor=#6881B3;strokeWidth=2;endArrow=none;endFill=0;" edge="1" parent="1" source="vLO9-Lh8UrGpiSDHTogs-107" target="vLO9-Lh8UrGpiSDHTogs-43">
          <mxGeometry relative="1" as="geometry" />
        </mxCell>
        <mxCell id="vLO9-Lh8UrGpiSDHTogs-127" style="edgeStyle=none;rounded=0;orthogonalLoop=1;jettySize=auto;html=1;exitX=0.8;exitY=0;exitDx=0;exitDy=0;exitPerimeter=0;shadow=0;strokeColor=#6881B3;strokeWidth=2;endArrow=none;endFill=0;entryX=0.1;entryY=1;entryDx=0;entryDy=0;entryPerimeter=0;" edge="1" parent="1" source="vLO9-Lh8UrGpiSDHTogs-108" target="vLO9-Lh8UrGpiSDHTogs-43">
          <mxGeometry relative="1" as="geometry">
            <mxPoint x="380" y="760" as="targetPoint" />
          </mxGeometry>
        </mxCell>
        <mxCell id="vLO9-Lh8UrGpiSDHTogs-123" style="edgeStyle=none;rounded=0;orthogonalLoop=1;jettySize=auto;html=1;exitX=0.98;exitY=0.12;exitDx=0;exitDy=0;exitPerimeter=0;entryX=0.1;entryY=1;entryDx=0;entryDy=0;entryPerimeter=0;shadow=0;strokeColor=#6881B3;strokeWidth=2;endArrow=none;endFill=0;" edge="1" parent="1" source="vLO9-Lh8UrGpiSDHTogs-109" target="vLO9-Lh8UrGpiSDHTogs-43">
          <mxGeometry relative="1" as="geometry" />
        </mxCell>
        <mxCell id="vLO9-Lh8UrGpiSDHTogs-122" style="edgeStyle=none;rounded=0;orthogonalLoop=1;jettySize=auto;html=1;exitX=0.8;exitY=0;exitDx=0;exitDy=0;exitPerimeter=0;entryX=0.1;entryY=1;entryDx=0;entryDy=0;entryPerimeter=0;shadow=0;strokeColor=#6881B3;strokeWidth=2;endArrow=none;endFill=0;" edge="1" parent="1" source="vLO9-Lh8UrGpiSDHTogs-110" target="vLO9-Lh8UrGpiSDHTogs-43">
          <mxGeometry relative="1" as="geometry" />
        </mxCell>
        <mxCell id="vLO9-Lh8UrGpiSDHTogs-119" style="edgeStyle=none;rounded=0;orthogonalLoop=1;jettySize=auto;html=1;exitX=0.98;exitY=0.12;exitDx=0;exitDy=0;exitPerimeter=0;entryX=0.5;entryY=1;entryDx=0;entryDy=0;entryPerimeter=0;shadow=0;strokeColor=#6881B3;strokeWidth=2;endArrow=none;endFill=0;" edge="1" parent="1" source="vLO9-Lh8UrGpiSDHTogs-114" target="vLO9-Lh8UrGpiSDHTogs-43">
          <mxGeometry relative="1" as="geometry" />
        </mxCell>
        <mxCell id="vLO9-Lh8UrGpiSDHTogs-116" value="" style="endArrow=none;html=1;rounded=0;shadow=0;strokeColor=#6881B3;strokeWidth=2;entryX=0.5;entryY=1;entryDx=0;entryDy=0;entryPerimeter=0;exitX=1;exitY=0.07;exitDx=0;exitDy=0;exitPerimeter=0;" edge="1" parent="1" source="vLO9-Lh8UrGpiSDHTogs-113" target="vLO9-Lh8UrGpiSDHTogs-43">
          <mxGeometry width="50" height="50" relative="1" as="geometry">
            <mxPoint x="80" y="1690" as="sourcePoint" />
            <mxPoint x="130" y="1640" as="targetPoint" />
          </mxGeometry>
        </mxCell>
        <mxCell id="vLO9-Lh8UrGpiSDHTogs-117" value="" style="endArrow=none;html=1;rounded=0;shadow=0;strokeColor=#6881B3;strokeWidth=2;entryX=0.5;entryY=1;entryDx=0;entryDy=0;entryPerimeter=0;exitX=0.8;exitY=0;exitDx=0;exitDy=0;exitPerimeter=0;" edge="1" parent="1" source="vLO9-Lh8UrGpiSDHTogs-115" target="vLO9-Lh8UrGpiSDHTogs-43">
          <mxGeometry width="50" height="50" relative="1" as="geometry">
            <mxPoint x="150" y="1540" as="sourcePoint" />
            <mxPoint x="200" y="1490" as="targetPoint" />
          </mxGeometry>
        </mxCell>
        <mxCell id="vLO9-Lh8UrGpiSDHTogs-118" value="" style="endArrow=none;html=1;rounded=0;shadow=0;strokeColor=#6881B3;strokeWidth=2;entryX=0.5;entryY=1;entryDx=0;entryDy=0;entryPerimeter=0;exitX=1;exitY=0.07;exitDx=0;exitDy=0;exitPerimeter=0;" edge="1" parent="1" source="vLO9-Lh8UrGpiSDHTogs-112" target="vLO9-Lh8UrGpiSDHTogs-43">
          <mxGeometry width="50" height="50" relative="1" as="geometry">
            <mxPoint x="150" y="1540" as="sourcePoint" />
            <mxPoint x="200" y="1490" as="targetPoint" />
          </mxGeometry>
        </mxCell>
        <mxCell id="vLO9-Lh8UrGpiSDHTogs-184" style="edgeStyle=none;rounded=0;orthogonalLoop=1;jettySize=auto;html=1;exitX=0.5;exitY=1;exitDx=0;exitDy=0;exitPerimeter=0;entryX=0.02;entryY=0.12;entryDx=0;entryDy=0;entryPerimeter=0;shadow=0;strokeColor=#6881B3;strokeWidth=2;endArrow=none;endFill=0;" edge="1" parent="1" source="vLO9-Lh8UrGpiSDHTogs-132" target="vLO9-Lh8UrGpiSDHTogs-170">
          <mxGeometry relative="1" as="geometry" />
        </mxCell>
        <mxCell id="vLO9-Lh8UrGpiSDHTogs-185" style="edgeStyle=none;rounded=0;orthogonalLoop=1;jettySize=auto;html=1;exitX=0.5;exitY=1;exitDx=0;exitDy=0;exitPerimeter=0;entryX=0;entryY=0;entryDx=0;entryDy=0;entryPerimeter=0;shadow=0;strokeColor=#6881B3;strokeWidth=2;endArrow=none;endFill=0;" edge="1" parent="1" source="vLO9-Lh8UrGpiSDHTogs-132" target="vLO9-Lh8UrGpiSDHTogs-169">
          <mxGeometry relative="1" as="geometry" />
        </mxCell>
        <mxCell id="vLO9-Lh8UrGpiSDHTogs-186" style="edgeStyle=none;rounded=0;orthogonalLoop=1;jettySize=auto;html=1;exitX=0.5;exitY=1;exitDx=0;exitDy=0;exitPerimeter=0;entryX=0;entryY=0;entryDx=0;entryDy=0;entryPerimeter=0;shadow=0;strokeColor=#6881B3;strokeWidth=2;endArrow=none;endFill=0;" edge="1" parent="1" source="vLO9-Lh8UrGpiSDHTogs-132" target="vLO9-Lh8UrGpiSDHTogs-168">
          <mxGeometry relative="1" as="geometry" />
        </mxCell>
        <mxCell id="vLO9-Lh8UrGpiSDHTogs-187" style="edgeStyle=none;rounded=0;orthogonalLoop=1;jettySize=auto;html=1;exitX=0.5;exitY=1;exitDx=0;exitDy=0;exitPerimeter=0;entryX=0;entryY=0;entryDx=0;entryDy=0;entryPerimeter=0;shadow=0;strokeColor=#6881B3;strokeWidth=2;endArrow=none;endFill=0;" edge="1" parent="1" source="vLO9-Lh8UrGpiSDHTogs-132" target="vLO9-Lh8UrGpiSDHTogs-172">
          <mxGeometry relative="1" as="geometry" />
        </mxCell>
        <mxCell id="vLO9-Lh8UrGpiSDHTogs-188" style="edgeStyle=none;rounded=0;orthogonalLoop=1;jettySize=auto;html=1;exitX=0.5;exitY=1;exitDx=0;exitDy=0;exitPerimeter=0;entryX=0.2;entryY=0;entryDx=0;entryDy=0;entryPerimeter=0;shadow=0;strokeColor=#6881B3;strokeWidth=2;endArrow=none;endFill=0;" edge="1" parent="1" source="vLO9-Lh8UrGpiSDHTogs-132" target="vLO9-Lh8UrGpiSDHTogs-171">
          <mxGeometry relative="1" as="geometry" />
        </mxCell>
        <mxCell id="vLO9-Lh8UrGpiSDHTogs-189" style="edgeStyle=none;rounded=0;orthogonalLoop=1;jettySize=auto;html=1;exitX=0.9;exitY=1;exitDx=0;exitDy=0;exitPerimeter=0;entryX=0.02;entryY=0.98;entryDx=0;entryDy=0;entryPerimeter=0;shadow=0;strokeColor=#6881B3;strokeWidth=2;endArrow=none;endFill=0;" edge="1" parent="1" source="vLO9-Lh8UrGpiSDHTogs-132" target="vLO9-Lh8UrGpiSDHTogs-176">
          <mxGeometry relative="1" as="geometry" />
        </mxCell>
        <mxCell id="vLO9-Lh8UrGpiSDHTogs-190" style="edgeStyle=none;rounded=0;orthogonalLoop=1;jettySize=auto;html=1;exitX=0.9;exitY=1;exitDx=0;exitDy=0;exitPerimeter=0;entryX=0;entryY=0.85;entryDx=0;entryDy=0;entryPerimeter=0;shadow=0;strokeColor=#6881B3;strokeWidth=2;endArrow=none;endFill=0;" edge="1" parent="1" source="vLO9-Lh8UrGpiSDHTogs-132" target="vLO9-Lh8UrGpiSDHTogs-175">
          <mxGeometry relative="1" as="geometry" />
        </mxCell>
        <mxCell id="vLO9-Lh8UrGpiSDHTogs-191" style="edgeStyle=none;rounded=0;orthogonalLoop=1;jettySize=auto;html=1;exitX=0.9;exitY=1;exitDx=0;exitDy=0;exitPerimeter=0;entryX=0;entryY=0.5;entryDx=0;entryDy=0;entryPerimeter=0;shadow=0;strokeColor=#6881B3;strokeWidth=2;endArrow=none;endFill=0;" edge="1" parent="1" source="vLO9-Lh8UrGpiSDHTogs-132" target="vLO9-Lh8UrGpiSDHTogs-177">
          <mxGeometry relative="1" as="geometry" />
        </mxCell>
        <mxCell id="vLO9-Lh8UrGpiSDHTogs-192" style="edgeStyle=none;rounded=0;orthogonalLoop=1;jettySize=auto;html=1;exitX=0.9;exitY=1;exitDx=0;exitDy=0;exitPerimeter=0;entryX=0;entryY=0;entryDx=0;entryDy=0;entryPerimeter=0;shadow=0;strokeColor=#6881B3;strokeWidth=2;endArrow=none;endFill=0;" edge="1" parent="1" source="vLO9-Lh8UrGpiSDHTogs-132" target="vLO9-Lh8UrGpiSDHTogs-174">
          <mxGeometry relative="1" as="geometry" />
        </mxCell>
        <mxCell id="vLO9-Lh8UrGpiSDHTogs-194" style="edgeStyle=none;rounded=0;orthogonalLoop=1;jettySize=auto;html=1;exitX=0.5;exitY=0;exitDx=0;exitDy=0;exitPerimeter=0;entryX=0.5;entryY=1;entryDx=0;entryDy=0;entryPerimeter=0;shadow=0;strokeColor=#6881B3;strokeWidth=2;endArrow=none;endFill=0;" edge="1" parent="1" source="vLO9-Lh8UrGpiSDHTogs-132" target="vLO9-Lh8UrGpiSDHTogs-98">
          <mxGeometry relative="1" as="geometry" />
        </mxCell>
        <mxCell id="vLO9-Lh8UrGpiSDHTogs-195" style="edgeStyle=none;rounded=0;orthogonalLoop=1;jettySize=auto;html=1;exitX=0.5;exitY=0;exitDx=0;exitDy=0;exitPerimeter=0;entryX=0.292;entryY=1.152;entryDx=0;entryDy=0;entryPerimeter=0;shadow=0;strokeColor=#6881B3;strokeWidth=2;endArrow=none;endFill=0;" edge="1" parent="1" source="vLO9-Lh8UrGpiSDHTogs-132" target="vLO9-Lh8UrGpiSDHTogs-97">
          <mxGeometry relative="1" as="geometry" />
        </mxCell>
        <mxCell id="vLO9-Lh8UrGpiSDHTogs-196" style="edgeStyle=none;rounded=0;orthogonalLoop=1;jettySize=auto;html=1;exitX=0.5;exitY=0;exitDx=0;exitDy=0;exitPerimeter=0;shadow=0;strokeColor=#6881B3;strokeWidth=2;endArrow=none;endFill=0;" edge="1" parent="1" source="vLO9-Lh8UrGpiSDHTogs-132" target="vLO9-Lh8UrGpiSDHTogs-99">
          <mxGeometry relative="1" as="geometry" />
        </mxCell>
        <mxCell id="vLO9-Lh8UrGpiSDHTogs-197" style="edgeStyle=none;rounded=0;orthogonalLoop=1;jettySize=auto;html=1;exitX=0.5;exitY=0;exitDx=0;exitDy=0;exitPerimeter=0;entryX=0;entryY=0.85;entryDx=0;entryDy=0;entryPerimeter=0;shadow=0;strokeColor=#6881B3;strokeWidth=2;endArrow=none;endFill=0;" edge="1" parent="1" source="vLO9-Lh8UrGpiSDHTogs-132" target="vLO9-Lh8UrGpiSDHTogs-96">
          <mxGeometry relative="1" as="geometry" />
        </mxCell>
        <mxCell id="vLO9-Lh8UrGpiSDHTogs-198" style="edgeStyle=none;rounded=0;orthogonalLoop=1;jettySize=auto;html=1;exitX=0.5;exitY=0;exitDx=0;exitDy=0;exitPerimeter=0;entryX=0;entryY=0.5;entryDx=0;entryDy=0;entryPerimeter=0;shadow=0;strokeColor=#6881B3;strokeWidth=2;endArrow=none;endFill=0;" edge="1" parent="1" source="vLO9-Lh8UrGpiSDHTogs-132" target="vLO9-Lh8UrGpiSDHTogs-100">
          <mxGeometry relative="1" as="geometry" />
        </mxCell>
        <mxCell id="vLO9-Lh8UrGpiSDHTogs-199" style="edgeStyle=none;rounded=0;orthogonalLoop=1;jettySize=auto;html=1;exitX=0.95;exitY=0.05;exitDx=0;exitDy=0;exitPerimeter=0;entryX=0;entryY=0.5;entryDx=0;entryDy=0;entryPerimeter=0;shadow=0;strokeColor=#6881B3;strokeWidth=2;endArrow=none;endFill=0;" edge="1" parent="1" source="vLO9-Lh8UrGpiSDHTogs-132" target="vLO9-Lh8UrGpiSDHTogs-137">
          <mxGeometry relative="1" as="geometry" />
        </mxCell>
        <mxCell id="vLO9-Lh8UrGpiSDHTogs-200" style="edgeStyle=none;rounded=0;orthogonalLoop=1;jettySize=auto;html=1;exitX=0.95;exitY=0.05;exitDx=0;exitDy=0;exitPerimeter=0;entryX=0;entryY=0;entryDx=0;entryDy=0;entryPerimeter=0;shadow=0;strokeColor=#6881B3;strokeWidth=2;endArrow=none;endFill=0;" edge="1" parent="1" source="vLO9-Lh8UrGpiSDHTogs-132" target="vLO9-Lh8UrGpiSDHTogs-139">
          <mxGeometry relative="1" as="geometry" />
        </mxCell>
        <mxCell id="vLO9-Lh8UrGpiSDHTogs-201" style="edgeStyle=none;rounded=0;orthogonalLoop=1;jettySize=auto;html=1;exitX=0.95;exitY=0.05;exitDx=0;exitDy=0;exitPerimeter=0;entryX=0;entryY=0;entryDx=0;entryDy=0;entryPerimeter=0;shadow=0;strokeColor=#6881B3;strokeWidth=2;endArrow=none;endFill=0;" edge="1" parent="1" source="vLO9-Lh8UrGpiSDHTogs-132" target="vLO9-Lh8UrGpiSDHTogs-134">
          <mxGeometry relative="1" as="geometry" />
        </mxCell>
        <mxCell id="vLO9-Lh8UrGpiSDHTogs-202" style="edgeStyle=none;rounded=0;orthogonalLoop=1;jettySize=auto;html=1;exitX=0.95;exitY=0.05;exitDx=0;exitDy=0;exitPerimeter=0;entryX=0;entryY=0;entryDx=0;entryDy=0;entryPerimeter=0;shadow=0;strokeColor=#6881B3;strokeWidth=2;endArrow=none;endFill=0;" edge="1" parent="1" source="vLO9-Lh8UrGpiSDHTogs-132" target="vLO9-Lh8UrGpiSDHTogs-133">
          <mxGeometry relative="1" as="geometry" />
        </mxCell>
        <mxCell id="vLO9-Lh8UrGpiSDHTogs-203" style="edgeStyle=none;rounded=0;orthogonalLoop=1;jettySize=auto;html=1;exitX=0.95;exitY=0.05;exitDx=0;exitDy=0;exitPerimeter=0;entryX=0;entryY=0;entryDx=0;entryDy=0;entryPerimeter=0;shadow=0;strokeColor=#6881B3;strokeWidth=2;endArrow=none;endFill=0;" edge="1" parent="1" source="vLO9-Lh8UrGpiSDHTogs-132" target="vLO9-Lh8UrGpiSDHTogs-138">
          <mxGeometry relative="1" as="geometry" />
        </mxCell>
        <mxCell id="vLO9-Lh8UrGpiSDHTogs-204" style="edgeStyle=none;rounded=0;orthogonalLoop=1;jettySize=auto;html=1;exitX=0.95;exitY=0.05;exitDx=0;exitDy=0;exitPerimeter=0;entryX=0.02;entryY=0.12;entryDx=0;entryDy=0;entryPerimeter=0;shadow=0;strokeColor=#6881B3;strokeWidth=2;endArrow=none;endFill=0;" edge="1" parent="1" source="vLO9-Lh8UrGpiSDHTogs-132" target="vLO9-Lh8UrGpiSDHTogs-135">
          <mxGeometry relative="1" as="geometry" />
        </mxCell>
        <mxCell id="vLO9-Lh8UrGpiSDHTogs-205" style="edgeStyle=none;rounded=0;orthogonalLoop=1;jettySize=auto;html=1;exitX=0.95;exitY=0.05;exitDx=0;exitDy=0;exitPerimeter=0;entryX=0;entryY=0.5;entryDx=0;entryDy=0;entryPerimeter=0;shadow=0;strokeColor=#6881B3;strokeWidth=2;endArrow=none;endFill=0;" edge="1" parent="1" source="vLO9-Lh8UrGpiSDHTogs-132" target="vLO9-Lh8UrGpiSDHTogs-142">
          <mxGeometry relative="1" as="geometry" />
        </mxCell>
        <mxCell id="vLO9-Lh8UrGpiSDHTogs-206" style="edgeStyle=none;rounded=0;orthogonalLoop=1;jettySize=auto;html=1;exitX=0.95;exitY=0.05;exitDx=0;exitDy=0;exitPerimeter=0;entryX=0;entryY=0.85;entryDx=0;entryDy=0;entryPerimeter=0;shadow=0;strokeColor=#6881B3;strokeWidth=2;endArrow=none;endFill=0;" edge="1" parent="1" source="vLO9-Lh8UrGpiSDHTogs-132" target="vLO9-Lh8UrGpiSDHTogs-140">
          <mxGeometry relative="1" as="geometry" />
        </mxCell>
        <mxCell id="vLO9-Lh8UrGpiSDHTogs-207" style="edgeStyle=none;rounded=0;orthogonalLoop=1;jettySize=auto;html=1;exitX=0.95;exitY=0.05;exitDx=0;exitDy=0;exitPerimeter=0;entryX=0;entryY=0.85;entryDx=0;entryDy=0;entryPerimeter=0;shadow=0;strokeColor=#6881B3;strokeWidth=2;endArrow=none;endFill=0;" edge="1" parent="1" source="vLO9-Lh8UrGpiSDHTogs-132" target="vLO9-Lh8UrGpiSDHTogs-145">
          <mxGeometry relative="1" as="geometry" />
        </mxCell>
        <mxCell id="vLO9-Lh8UrGpiSDHTogs-208" style="edgeStyle=none;rounded=0;orthogonalLoop=1;jettySize=auto;html=1;exitX=0.95;exitY=0.05;exitDx=0;exitDy=0;exitPerimeter=0;entryX=0;entryY=0.85;entryDx=0;entryDy=0;entryPerimeter=0;shadow=0;strokeColor=#6881B3;strokeWidth=2;endArrow=none;endFill=0;" edge="1" parent="1" source="vLO9-Lh8UrGpiSDHTogs-132" target="vLO9-Lh8UrGpiSDHTogs-144">
          <mxGeometry relative="1" as="geometry" />
        </mxCell>
        <mxCell id="vLO9-Lh8UrGpiSDHTogs-209" style="edgeStyle=none;rounded=0;orthogonalLoop=1;jettySize=auto;html=1;exitX=0.95;exitY=0.05;exitDx=0;exitDy=0;exitPerimeter=0;entryX=0;entryY=0;entryDx=0;entryDy=0;entryPerimeter=0;shadow=0;strokeColor=#6881B3;strokeWidth=2;endArrow=none;endFill=0;" edge="1" parent="1" source="vLO9-Lh8UrGpiSDHTogs-132" target="vLO9-Lh8UrGpiSDHTogs-154">
          <mxGeometry relative="1" as="geometry" />
        </mxCell>
        <mxCell id="vLO9-Lh8UrGpiSDHTogs-210" style="edgeStyle=none;rounded=0;orthogonalLoop=1;jettySize=auto;html=1;exitX=0.95;exitY=0.05;exitDx=0;exitDy=0;exitPerimeter=0;entryX=0.02;entryY=0.12;entryDx=0;entryDy=0;entryPerimeter=0;shadow=0;strokeColor=#6881B3;strokeWidth=2;endArrow=none;endFill=0;" edge="1" parent="1" source="vLO9-Lh8UrGpiSDHTogs-132" target="vLO9-Lh8UrGpiSDHTogs-148">
          <mxGeometry relative="1" as="geometry" />
        </mxCell>
        <mxCell id="vLO9-Lh8UrGpiSDHTogs-211" style="edgeStyle=none;rounded=0;orthogonalLoop=1;jettySize=auto;html=1;exitX=0.95;exitY=0.05;exitDx=0;exitDy=0;exitPerimeter=0;entryX=0;entryY=0;entryDx=0;entryDy=0;entryPerimeter=0;shadow=0;strokeColor=#6881B3;strokeWidth=2;endArrow=none;endFill=0;" edge="1" parent="1" source="vLO9-Lh8UrGpiSDHTogs-132" target="vLO9-Lh8UrGpiSDHTogs-152">
          <mxGeometry relative="1" as="geometry" />
        </mxCell>
        <mxCell id="vLO9-Lh8UrGpiSDHTogs-212" style="edgeStyle=none;rounded=0;orthogonalLoop=1;jettySize=auto;html=1;exitX=0.95;exitY=0.05;exitDx=0;exitDy=0;exitPerimeter=0;entryX=0;entryY=0.5;entryDx=0;entryDy=0;entryPerimeter=0;shadow=0;strokeColor=#6881B3;strokeWidth=2;endArrow=none;endFill=0;" edge="1" parent="1" source="vLO9-Lh8UrGpiSDHTogs-132" target="vLO9-Lh8UrGpiSDHTogs-149">
          <mxGeometry relative="1" as="geometry" />
        </mxCell>
        <mxCell id="vLO9-Lh8UrGpiSDHTogs-213" style="edgeStyle=none;rounded=0;orthogonalLoop=1;jettySize=auto;html=1;exitX=0.95;exitY=0.05;exitDx=0;exitDy=0;exitPerimeter=0;entryX=0;entryY=0.85;entryDx=0;entryDy=0;entryPerimeter=0;shadow=0;strokeColor=#6881B3;strokeWidth=2;endArrow=none;endFill=0;" edge="1" parent="1" source="vLO9-Lh8UrGpiSDHTogs-132" target="vLO9-Lh8UrGpiSDHTogs-153">
          <mxGeometry relative="1" as="geometry" />
        </mxCell>
        <mxCell id="vLO9-Lh8UrGpiSDHTogs-214" style="edgeStyle=none;rounded=0;orthogonalLoop=1;jettySize=auto;html=1;exitX=0.95;exitY=0.05;exitDx=0;exitDy=0;exitPerimeter=0;entryX=0;entryY=0.5;entryDx=0;entryDy=0;entryPerimeter=0;shadow=0;strokeColor=#6881B3;strokeWidth=2;endArrow=none;endFill=0;" edge="1" parent="1" source="vLO9-Lh8UrGpiSDHTogs-132" target="vLO9-Lh8UrGpiSDHTogs-165">
          <mxGeometry relative="1" as="geometry" />
        </mxCell>
        <mxCell id="vLO9-Lh8UrGpiSDHTogs-215" style="edgeStyle=none;rounded=0;orthogonalLoop=1;jettySize=auto;html=1;exitX=0.95;exitY=0.05;exitDx=0;exitDy=0;exitPerimeter=0;entryX=0;entryY=0;entryDx=0;entryDy=0;entryPerimeter=0;shadow=0;strokeColor=#6881B3;strokeWidth=2;endArrow=none;endFill=0;" edge="1" parent="1" source="vLO9-Lh8UrGpiSDHTogs-132" target="vLO9-Lh8UrGpiSDHTogs-167">
          <mxGeometry relative="1" as="geometry" />
        </mxCell>
        <mxCell id="vLO9-Lh8UrGpiSDHTogs-216" style="edgeStyle=none;rounded=0;orthogonalLoop=1;jettySize=auto;html=1;exitX=0.95;exitY=0.05;exitDx=0;exitDy=0;exitPerimeter=0;entryX=0;entryY=0;entryDx=0;entryDy=0;entryPerimeter=0;shadow=0;strokeColor=#6881B3;strokeWidth=2;endArrow=none;endFill=0;" edge="1" parent="1" source="vLO9-Lh8UrGpiSDHTogs-132" target="vLO9-Lh8UrGpiSDHTogs-163">
          <mxGeometry relative="1" as="geometry" />
        </mxCell>
        <mxCell id="vLO9-Lh8UrGpiSDHTogs-217" style="edgeStyle=none;rounded=0;orthogonalLoop=1;jettySize=auto;html=1;exitX=0.95;exitY=0.05;exitDx=0;exitDy=0;exitPerimeter=0;entryX=0.02;entryY=0.12;entryDx=0;entryDy=0;entryPerimeter=0;shadow=0;strokeColor=#6881B3;strokeWidth=2;endArrow=none;endFill=0;" edge="1" parent="1" source="vLO9-Lh8UrGpiSDHTogs-132" target="vLO9-Lh8UrGpiSDHTogs-164">
          <mxGeometry relative="1" as="geometry" />
        </mxCell>
        <mxCell id="vLO9-Lh8UrGpiSDHTogs-218" style="edgeStyle=none;rounded=0;orthogonalLoop=1;jettySize=auto;html=1;exitX=0.95;exitY=0.05;exitDx=0;exitDy=0;exitPerimeter=0;entryX=0;entryY=0.5;entryDx=0;entryDy=0;entryPerimeter=0;shadow=0;strokeColor=#6881B3;strokeWidth=2;endArrow=none;endFill=0;" edge="1" parent="1" source="vLO9-Lh8UrGpiSDHTogs-132" target="vLO9-Lh8UrGpiSDHTogs-162">
          <mxGeometry relative="1" as="geometry" />
        </mxCell>
        <mxCell id="vLO9-Lh8UrGpiSDHTogs-219" style="edgeStyle=none;rounded=0;orthogonalLoop=1;jettySize=auto;html=1;exitX=0.95;exitY=0.05;exitDx=0;exitDy=0;exitPerimeter=0;entryX=0.1;entryY=0.85;entryDx=0;entryDy=0;entryPerimeter=0;shadow=0;strokeColor=#6881B3;strokeWidth=2;endArrow=none;endFill=0;" edge="1" parent="1" source="vLO9-Lh8UrGpiSDHTogs-132" target="vLO9-Lh8UrGpiSDHTogs-166">
          <mxGeometry relative="1" as="geometry" />
        </mxCell>
        <mxCell id="vLO9-Lh8UrGpiSDHTogs-220" style="edgeStyle=none;rounded=0;orthogonalLoop=1;jettySize=auto;html=1;exitX=0.9;exitY=1;exitDx=0;exitDy=0;exitPerimeter=0;entryX=0.02;entryY=0.12;entryDx=0;entryDy=0;entryPerimeter=0;shadow=0;strokeColor=#6881B3;strokeWidth=2;endArrow=none;endFill=0;" edge="1" parent="1" source="vLO9-Lh8UrGpiSDHTogs-132" target="vLO9-Lh8UrGpiSDHTogs-181">
          <mxGeometry relative="1" as="geometry" />
        </mxCell>
        <mxCell id="vLO9-Lh8UrGpiSDHTogs-221" style="edgeStyle=none;rounded=0;orthogonalLoop=1;jettySize=auto;html=1;exitX=0.9;exitY=1;exitDx=0;exitDy=0;exitPerimeter=0;entryX=0;entryY=0;entryDx=0;entryDy=0;entryPerimeter=0;shadow=0;strokeColor=#6881B3;strokeWidth=2;endArrow=none;endFill=0;" edge="1" parent="1" source="vLO9-Lh8UrGpiSDHTogs-132" target="vLO9-Lh8UrGpiSDHTogs-180">
          <mxGeometry relative="1" as="geometry" />
        </mxCell>
        <mxCell id="vLO9-Lh8UrGpiSDHTogs-222" style="edgeStyle=none;rounded=0;orthogonalLoop=1;jettySize=auto;html=1;exitX=0.9;exitY=1;exitDx=0;exitDy=0;exitPerimeter=0;entryX=0;entryY=0;entryDx=0;entryDy=0;entryPerimeter=0;shadow=0;strokeColor=#6881B3;strokeWidth=2;endArrow=none;endFill=0;" edge="1" parent="1" source="vLO9-Lh8UrGpiSDHTogs-132" target="vLO9-Lh8UrGpiSDHTogs-179">
          <mxGeometry relative="1" as="geometry" />
        </mxCell>
        <mxCell id="vLO9-Lh8UrGpiSDHTogs-223" style="edgeStyle=none;rounded=0;orthogonalLoop=1;jettySize=auto;html=1;exitX=0.9;exitY=1;exitDx=0;exitDy=0;exitPerimeter=0;entryX=0;entryY=0;entryDx=0;entryDy=0;entryPerimeter=0;shadow=0;strokeColor=#6881B3;strokeWidth=2;endArrow=none;endFill=0;" edge="1" parent="1" source="vLO9-Lh8UrGpiSDHTogs-132" target="vLO9-Lh8UrGpiSDHTogs-183">
          <mxGeometry relative="1" as="geometry" />
        </mxCell>
        <mxCell id="vLO9-Lh8UrGpiSDHTogs-224" style="edgeStyle=none;rounded=0;orthogonalLoop=1;jettySize=auto;html=1;exitX=0.9;exitY=1;exitDx=0;exitDy=0;exitPerimeter=0;entryX=0.2;entryY=0;entryDx=0;entryDy=0;entryPerimeter=0;shadow=0;strokeColor=#6881B3;strokeWidth=2;endArrow=none;endFill=0;" edge="1" parent="1" source="vLO9-Lh8UrGpiSDHTogs-132" target="vLO9-Lh8UrGpiSDHTogs-182">
          <mxGeometry relative="1" as="geometry" />
        </mxCell>
        <mxCell id="vLO9-Lh8UrGpiSDHTogs-148" value="" style="fontColor=#0066CC;verticalAlign=top;verticalLabelPosition=bottom;labelPosition=center;align=center;html=1;outlineConnect=0;fillColor=#CCCCCC;strokeColor=#6881B3;gradientColor=none;gradientDirection=north;strokeWidth=2;shape=mxgraph.networks.phone_2;" vertex="1" parent="1">
          <mxGeometry x="3400" y="39" width="100" height="90" as="geometry" />
        </mxCell>
        <mxCell id="vLO9-Lh8UrGpiSDHTogs-149" value="printer" style="fontColor=#0066CC;verticalAlign=top;verticalLabelPosition=bottom;labelPosition=center;align=center;html=1;fillColor=#CCCCCC;strokeColor=#6881B3;gradientColor=none;gradientDirection=north;strokeWidth=2;shape=mxgraph.networks.printer;rounded=1;shadow=0;comic=0;labelBackgroundColor=#ffffff;" vertex="1" parent="1">
          <mxGeometry x="3640" y="44" width="100" height="100" as="geometry" />
        </mxCell>
        <mxCell id="vLO9-Lh8UrGpiSDHTogs-152" value="workstation" style="fontColor=#0066CC;verticalAlign=top;verticalLabelPosition=bottom;labelPosition=center;align=center;html=1;fillColor=#CCCCCC;strokeColor=#6881B3;gradientColor=none;gradientDirection=north;strokeWidth=2;shape=mxgraph.networks.pc;rounded=1;shadow=0;comic=0;labelBackgroundColor=#ffffff;" vertex="1" parent="1">
          <mxGeometry x="3572" y="260" width="100" height="70" as="geometry" />
        </mxCell>
        <mxCell id="vLO9-Lh8UrGpiSDHTogs-153" value="workstation" style="fontColor=#0066CC;verticalAlign=top;verticalLabelPosition=bottom;labelPosition=center;align=center;html=1;fillColor=#CCCCCC;strokeColor=#6881B3;gradientColor=none;gradientDirection=north;strokeWidth=2;shape=mxgraph.networks.pc;rounded=1;shadow=0;comic=0;labelBackgroundColor=#ffffff;" vertex="1" parent="1">
          <mxGeometry x="3622" y="475" width="100" height="70" as="geometry" />
        </mxCell>
        <mxCell id="vLO9-Lh8UrGpiSDHTogs-154" value="workstation" style="fontColor=#0066CC;verticalAlign=top;verticalLabelPosition=bottom;labelPosition=center;align=center;html=1;fillColor=#CCCCCC;strokeColor=#6881B3;gradientColor=none;gradientDirection=north;strokeWidth=2;shape=mxgraph.networks.pc;rounded=1;shadow=0;comic=0;labelBackgroundColor=#ffffff;" vertex="1" parent="1">
          <mxGeometry x="3452" y="395" width="100" height="70" as="geometry" />
        </mxCell>
        <mxCell id="vLO9-Lh8UrGpiSDHTogs-162" value="workstation" style="fontColor=#0066CC;verticalAlign=top;verticalLabelPosition=bottom;labelPosition=center;align=center;html=1;fillColor=#CCCCCC;strokeColor=#6881B3;gradientColor=none;gradientDirection=north;strokeWidth=2;shape=mxgraph.networks.pc;rounded=1;shadow=0;comic=0;labelBackgroundColor=#ffffff;" vertex="1" parent="1">
          <mxGeometry x="4130" y="211" width="100" height="70" as="geometry" />
        </mxCell>
        <mxCell id="vLO9-Lh8UrGpiSDHTogs-163" value="workstation" style="fontColor=#0066CC;verticalAlign=top;verticalLabelPosition=bottom;labelPosition=center;align=center;html=1;fillColor=#CCCCCC;strokeColor=#6881B3;gradientColor=none;gradientDirection=north;strokeWidth=2;shape=mxgraph.networks.pc;rounded=1;shadow=0;comic=0;labelBackgroundColor=#ffffff;" vertex="1" parent="1">
          <mxGeometry x="3980" y="211" width="100" height="70" as="geometry" />
        </mxCell>
        <mxCell id="vLO9-Lh8UrGpiSDHTogs-164" value="" style="fontColor=#0066CC;verticalAlign=top;verticalLabelPosition=bottom;labelPosition=center;align=center;html=1;outlineConnect=0;fillColor=#CCCCCC;strokeColor=#6881B3;gradientColor=none;gradientDirection=north;strokeWidth=2;shape=mxgraph.networks.phone_2;" vertex="1" parent="1">
          <mxGeometry x="4240" y="20" width="100" height="90" as="geometry" />
        </mxCell>
        <mxCell id="vLO9-Lh8UrGpiSDHTogs-165" value="printer" style="fontColor=#0066CC;verticalAlign=top;verticalLabelPosition=bottom;labelPosition=center;align=center;html=1;fillColor=#CCCCCC;strokeColor=#6881B3;gradientColor=none;gradientDirection=north;strokeWidth=2;shape=mxgraph.networks.printer;rounded=1;shadow=0;comic=0;labelBackgroundColor=#ffffff;" vertex="1" parent="1">
          <mxGeometry x="3890" y="516" width="100" height="100" as="geometry" />
        </mxCell>
        <mxCell id="vLO9-Lh8UrGpiSDHTogs-166" value="workstation" style="fontColor=#0066CC;verticalAlign=top;verticalLabelPosition=bottom;labelPosition=center;align=center;html=1;fillColor=#CCCCCC;strokeColor=#6881B3;gradientColor=none;gradientDirection=north;strokeWidth=2;shape=mxgraph.networks.pc;rounded=1;shadow=0;comic=0;labelBackgroundColor=#ffffff;" vertex="1" parent="1">
          <mxGeometry x="4130" y="341" width="100" height="70" as="geometry" />
        </mxCell>
        <mxCell id="vLO9-Lh8UrGpiSDHTogs-167" value="workstation" style="fontColor=#0066CC;verticalAlign=top;verticalLabelPosition=bottom;labelPosition=center;align=center;html=1;fillColor=#CCCCCC;strokeColor=#6881B3;gradientColor=none;gradientDirection=north;strokeWidth=2;shape=mxgraph.networks.pc;rounded=1;shadow=0;comic=0;labelBackgroundColor=#ffffff;" vertex="1" parent="1">
          <mxGeometry x="3980" y="341" width="100" height="70" as="geometry" />
        </mxCell>
        <mxCell id="vLO9-Lh8UrGpiSDHTogs-179" value="workstation" style="fontColor=#0066CC;verticalAlign=top;verticalLabelPosition=bottom;labelPosition=center;align=center;html=1;fillColor=#CCCCCC;strokeColor=#6881B3;gradientColor=none;gradientDirection=north;strokeWidth=2;shape=mxgraph.networks.pc;rounded=1;shadow=0;comic=0;labelBackgroundColor=#ffffff;" vertex="1" parent="1">
          <mxGeometry x="3650" y="1400" width="100" height="70" as="geometry" />
        </mxCell>
        <mxCell id="vLO9-Lh8UrGpiSDHTogs-180" value="workstation" style="fontColor=#0066CC;verticalAlign=top;verticalLabelPosition=bottom;labelPosition=center;align=center;html=1;fillColor=#CCCCCC;strokeColor=#6881B3;gradientColor=none;gradientDirection=north;strokeWidth=2;shape=mxgraph.networks.pc;rounded=1;shadow=0;comic=0;labelBackgroundColor=#ffffff;" vertex="1" parent="1">
          <mxGeometry x="3500" y="1400" width="100" height="70" as="geometry" />
        </mxCell>
        <mxCell id="vLO9-Lh8UrGpiSDHTogs-181" value="" style="fontColor=#0066CC;verticalAlign=top;verticalLabelPosition=bottom;labelPosition=center;align=center;html=1;outlineConnect=0;fillColor=#CCCCCC;strokeColor=#6881B3;gradientColor=none;gradientDirection=north;strokeWidth=2;shape=mxgraph.networks.phone_2;" vertex="1" parent="1">
          <mxGeometry x="3390" y="1220" width="100" height="90" as="geometry" />
        </mxCell>
        <mxCell id="vLO9-Lh8UrGpiSDHTogs-182" value="printer" style="fontColor=#0066CC;verticalAlign=top;verticalLabelPosition=bottom;labelPosition=center;align=center;html=1;fillColor=#CCCCCC;strokeColor=#6881B3;gradientColor=none;gradientDirection=north;strokeWidth=2;shape=mxgraph.networks.printer;rounded=1;shadow=0;comic=0;labelBackgroundColor=#ffffff;" vertex="1" parent="1">
          <mxGeometry x="3640" y="1730" width="100" height="100" as="geometry" />
        </mxCell>
        <mxCell id="vLO9-Lh8UrGpiSDHTogs-183" value="workstation" style="fontColor=#0066CC;verticalAlign=top;verticalLabelPosition=bottom;labelPosition=center;align=center;html=1;fillColor=#CCCCCC;strokeColor=#6881B3;gradientColor=none;gradientDirection=north;strokeWidth=2;shape=mxgraph.networks.pc;rounded=1;shadow=0;comic=0;labelBackgroundColor=#ffffff;" vertex="1" parent="1">
          <mxGeometry x="3572" y="1550" width="100" height="70" as="geometry" />
        </mxCell>
        <mxCell id="vLO9-Lh8UrGpiSDHTogs-62" value="workstation" style="fontColor=#0066CC;verticalAlign=top;verticalLabelPosition=bottom;labelPosition=center;align=center;html=1;fillColor=#CCCCCC;strokeColor=#6881B3;gradientColor=none;gradientDirection=north;strokeWidth=2;shape=mxgraph.networks.pc;rounded=1;shadow=0;comic=0;labelBackgroundColor=#ffffff;" vertex="1" parent="1">
          <mxGeometry x="240" y="40" width="100" height="70" as="geometry" />
        </mxCell>
        <mxCell id="vLO9-Lh8UrGpiSDHTogs-76" value="workstation" style="fontColor=#0066CC;verticalAlign=top;verticalLabelPosition=bottom;labelPosition=center;align=center;html=1;fillColor=#CCCCCC;strokeColor=#6881B3;gradientColor=none;gradientDirection=north;strokeWidth=2;shape=mxgraph.networks.pc;rounded=1;shadow=0;comic=0;labelBackgroundColor=#ffffff;" vertex="1" parent="1">
          <mxGeometry x="240" y="160" width="100" height="70" as="geometry" />
        </mxCell>
        <mxCell id="vLO9-Lh8UrGpiSDHTogs-78" value="printer" style="fontColor=#0066CC;verticalAlign=top;verticalLabelPosition=bottom;labelPosition=center;align=center;html=1;fillColor=#CCCCCC;strokeColor=#6881B3;gradientColor=none;gradientDirection=north;strokeWidth=2;shape=mxgraph.networks.printer;rounded=1;shadow=0;comic=0;labelBackgroundColor=#ffffff;" vertex="1" parent="1">
          <mxGeometry x="250" y="270" width="100" height="100" as="geometry" />
        </mxCell>
        <mxCell id="vLO9-Lh8UrGpiSDHTogs-79" value="printer" style="fontColor=#0066CC;verticalAlign=top;verticalLabelPosition=bottom;labelPosition=center;align=center;html=1;fillColor=#CCCCCC;strokeColor=#6881B3;gradientColor=none;gradientDirection=north;strokeWidth=2;shape=mxgraph.networks.printer;rounded=1;shadow=0;comic=0;labelBackgroundColor=#ffffff;" vertex="1" parent="1">
          <mxGeometry x="250" y="520" width="100" height="100" as="geometry" />
        </mxCell>
        <mxCell id="vLO9-Lh8UrGpiSDHTogs-77" value="printer" style="fontColor=#0066CC;verticalAlign=top;verticalLabelPosition=bottom;labelPosition=center;align=center;html=1;fillColor=#CCCCCC;strokeColor=#6881B3;gradientColor=none;gradientDirection=north;strokeWidth=2;shape=mxgraph.networks.printer;rounded=1;shadow=0;comic=0;labelBackgroundColor=#ffffff;" vertex="1" parent="1">
          <mxGeometry x="250" y="400" width="100" height="100" as="geometry" />
        </mxCell>
        <mxCell id="vLO9-Lh8UrGpiSDHTogs-101" value="workstation" style="fontColor=#0066CC;verticalAlign=top;verticalLabelPosition=bottom;labelPosition=center;align=center;html=1;fillColor=#CCCCCC;strokeColor=#6881B3;gradientColor=none;gradientDirection=north;strokeWidth=2;shape=mxgraph.networks.pc;rounded=1;shadow=0;comic=0;labelBackgroundColor=#ffffff;" vertex="1" parent="1">
          <mxGeometry x="-1150" y="1350" width="100" height="70" as="geometry" />
        </mxCell>
        <mxCell id="vLO9-Lh8UrGpiSDHTogs-103" value="workstation" style="fontColor=#0066CC;verticalAlign=top;verticalLabelPosition=bottom;labelPosition=center;align=center;html=1;fillColor=#CCCCCC;strokeColor=#6881B3;gradientColor=none;gradientDirection=north;strokeWidth=2;shape=mxgraph.networks.pc;rounded=1;shadow=0;comic=0;labelBackgroundColor=#ffffff;" vertex="1" parent="1">
          <mxGeometry x="-590" y="1350" width="100" height="70" as="geometry" />
        </mxCell>
        <mxCell id="vLO9-Lh8UrGpiSDHTogs-105" value="workstation" style="fontColor=#0066CC;verticalAlign=top;verticalLabelPosition=bottom;labelPosition=center;align=center;html=1;fillColor=#CCCCCC;strokeColor=#6881B3;gradientColor=none;gradientDirection=north;strokeWidth=2;shape=mxgraph.networks.pc;rounded=1;shadow=0;comic=0;labelBackgroundColor=#ffffff;" vertex="1" parent="1">
          <mxGeometry x="-420" y="1350" width="100" height="70" as="geometry" />
        </mxCell>
        <mxCell id="vLO9-Lh8UrGpiSDHTogs-106" value="workstation" style="fontColor=#0066CC;verticalAlign=top;verticalLabelPosition=bottom;labelPosition=center;align=center;html=1;fillColor=#CCCCCC;strokeColor=#6881B3;gradientColor=none;gradientDirection=north;strokeWidth=2;shape=mxgraph.networks.pc;rounded=1;shadow=0;comic=0;labelBackgroundColor=#ffffff;" vertex="1" parent="1">
          <mxGeometry x="-1000" y="1350" width="100" height="70" as="geometry" />
        </mxCell>
        <mxCell id="vLO9-Lh8UrGpiSDHTogs-107" value="" style="fontColor=#0066CC;verticalAlign=top;verticalLabelPosition=bottom;labelPosition=center;align=center;html=1;outlineConnect=0;fillColor=#CCCCCC;strokeColor=#6881B3;gradientColor=none;gradientDirection=north;strokeWidth=2;shape=mxgraph.networks.phone_2;" vertex="1" parent="1">
          <mxGeometry x="-1350" y="1280" width="100" height="90" as="geometry" />
        </mxCell>
        <mxCell id="vLO9-Lh8UrGpiSDHTogs-108" value="printer" style="fontColor=#0066CC;verticalAlign=top;verticalLabelPosition=bottom;labelPosition=center;align=center;html=1;fillColor=#CCCCCC;strokeColor=#6881B3;gradientColor=none;gradientDirection=north;strokeWidth=2;shape=mxgraph.networks.printer;rounded=1;shadow=0;comic=0;labelBackgroundColor=#ffffff;" vertex="1" parent="1">
          <mxGeometry x="-1000" y="1754" width="100" height="100" as="geometry" />
        </mxCell>
        <mxCell id="vLO9-Lh8UrGpiSDHTogs-109" value="" style="fontColor=#0066CC;verticalAlign=top;verticalLabelPosition=bottom;labelPosition=center;align=center;html=1;outlineConnect=0;fillColor=#CCCCCC;strokeColor=#6881B3;gradientColor=none;gradientDirection=north;strokeWidth=2;shape=mxgraph.networks.phone_2;" vertex="1" parent="1">
          <mxGeometry x="-780" y="1280" width="100" height="90" as="geometry" />
        </mxCell>
        <mxCell id="vLO9-Lh8UrGpiSDHTogs-110" value="printer" style="fontColor=#0066CC;verticalAlign=top;verticalLabelPosition=bottom;labelPosition=center;align=center;html=1;fillColor=#CCCCCC;strokeColor=#6881B3;gradientColor=none;gradientDirection=north;strokeWidth=2;shape=mxgraph.networks.printer;rounded=1;shadow=0;comic=0;labelBackgroundColor=#ffffff;" vertex="1" parent="1">
          <mxGeometry x="-420" y="1754" width="100" height="100" as="geometry" />
        </mxCell>
        <mxCell id="vLO9-Lh8UrGpiSDHTogs-112" value="workstation" style="fontColor=#0066CC;verticalAlign=top;verticalLabelPosition=bottom;labelPosition=center;align=center;html=1;fillColor=#CCCCCC;strokeColor=#6881B3;gradientColor=none;gradientDirection=north;strokeWidth=2;shape=mxgraph.networks.pc;rounded=1;shadow=0;comic=0;labelBackgroundColor=#ffffff;" vertex="1" parent="1">
          <mxGeometry y="1350" width="100" height="70" as="geometry" />
        </mxCell>
        <mxCell id="vLO9-Lh8UrGpiSDHTogs-113" value="workstation" style="fontColor=#0066CC;verticalAlign=top;verticalLabelPosition=bottom;labelPosition=center;align=center;html=1;fillColor=#CCCCCC;strokeColor=#6881B3;gradientColor=none;gradientDirection=north;strokeWidth=2;shape=mxgraph.networks.pc;rounded=1;shadow=0;comic=0;labelBackgroundColor=#ffffff;" vertex="1" parent="1">
          <mxGeometry x="170" y="1350" width="100" height="70" as="geometry" />
        </mxCell>
        <mxCell id="vLO9-Lh8UrGpiSDHTogs-114" value="" style="fontColor=#0066CC;verticalAlign=top;verticalLabelPosition=bottom;labelPosition=center;align=center;html=1;outlineConnect=0;fillColor=#CCCCCC;strokeColor=#6881B3;gradientColor=none;gradientDirection=north;strokeWidth=2;shape=mxgraph.networks.phone_2;" vertex="1" parent="1">
          <mxGeometry x="-190" y="1280" width="100" height="90" as="geometry" />
        </mxCell>
        <mxCell id="vLO9-Lh8UrGpiSDHTogs-115" value="printer" style="fontColor=#0066CC;verticalAlign=top;verticalLabelPosition=bottom;labelPosition=center;align=center;html=1;fillColor=#CCCCCC;strokeColor=#6881B3;gradientColor=none;gradientDirection=north;strokeWidth=2;shape=mxgraph.networks.printer;rounded=1;shadow=0;comic=0;labelBackgroundColor=#ffffff;" vertex="1" parent="1">
          <mxGeometry x="170" y="1754" width="100" height="100" as="geometry" />
        </mxCell>
        <mxCell id="vLO9-Lh8UrGpiSDHTogs-44" value="workstation" style="fontColor=#0066CC;verticalAlign=top;verticalLabelPosition=bottom;labelPosition=center;align=center;html=1;fillColor=#CCCCCC;strokeColor=#6881B3;gradientColor=none;gradientDirection=north;strokeWidth=2;shape=mxgraph.networks.pc;rounded=1;shadow=0;comic=0;labelBackgroundColor=#ffffff;" vertex="1" parent="1">
          <mxGeometry x="-2210" y="170" width="100" height="70" as="geometry" />
        </mxCell>
        <mxCell id="vLO9-Lh8UrGpiSDHTogs-45" value="workstation" style="fontColor=#0066CC;verticalAlign=top;verticalLabelPosition=bottom;labelPosition=center;align=center;html=1;fillColor=#CCCCCC;strokeColor=#6881B3;gradientColor=none;gradientDirection=north;strokeWidth=2;shape=mxgraph.networks.pc;rounded=1;shadow=0;comic=0;labelBackgroundColor=#ffffff;" vertex="1" parent="1">
          <mxGeometry x="-2030" y="289" width="100" height="70" as="geometry" />
        </mxCell>
        <mxCell id="vLO9-Lh8UrGpiSDHTogs-46" value="workstation" style="fontColor=#0066CC;verticalAlign=top;verticalLabelPosition=bottom;labelPosition=center;align=center;html=1;fillColor=#CCCCCC;strokeColor=#6881B3;gradientColor=none;gradientDirection=north;strokeWidth=2;shape=mxgraph.networks.pc;rounded=1;shadow=0;comic=0;labelBackgroundColor=#ffffff;" vertex="1" parent="1">
          <mxGeometry x="-1510" y="59" width="100" height="70" as="geometry" />
        </mxCell>
        <mxCell id="vLO9-Lh8UrGpiSDHTogs-47" value="workstation" style="fontColor=#0066CC;verticalAlign=top;verticalLabelPosition=bottom;labelPosition=center;align=center;html=1;fillColor=#CCCCCC;strokeColor=#6881B3;gradientColor=none;gradientDirection=north;strokeWidth=2;shape=mxgraph.networks.pc;rounded=1;shadow=0;comic=0;labelBackgroundColor=#ffffff;" vertex="1" parent="1">
          <mxGeometry x="-1340" y="380" width="100" height="70" as="geometry" />
        </mxCell>
        <mxCell id="vLO9-Lh8UrGpiSDHTogs-48" value="workstation" style="fontColor=#0066CC;verticalAlign=top;verticalLabelPosition=bottom;labelPosition=center;align=center;html=1;fillColor=#CCCCCC;strokeColor=#6881B3;gradientColor=none;gradientDirection=north;strokeWidth=2;shape=mxgraph.networks.pc;rounded=1;shadow=0;comic=0;labelBackgroundColor=#ffffff;" vertex="1" parent="1">
          <mxGeometry x="-1510" y="220" width="100" height="70" as="geometry" />
        </mxCell>
        <mxCell id="vLO9-Lh8UrGpiSDHTogs-49" value="workstation" style="fontColor=#0066CC;verticalAlign=top;verticalLabelPosition=bottom;labelPosition=center;align=center;html=1;fillColor=#CCCCCC;strokeColor=#6881B3;gradientColor=none;gradientDirection=north;strokeWidth=2;shape=mxgraph.networks.pc;rounded=1;shadow=0;comic=0;labelBackgroundColor=#ffffff;" vertex="1" parent="1">
          <mxGeometry x="-1510" y="380" width="100" height="70" as="geometry" />
        </mxCell>
        <mxCell id="vLO9-Lh8UrGpiSDHTogs-51" value="printer" style="fontColor=#0066CC;verticalAlign=top;verticalLabelPosition=bottom;labelPosition=center;align=center;html=1;fillColor=#CCCCCC;strokeColor=#6881B3;gradientColor=none;gradientDirection=north;strokeWidth=2;shape=mxgraph.networks.printer;rounded=1;shadow=0;comic=0;labelBackgroundColor=#ffffff;" vertex="1" parent="1">
          <mxGeometry x="-1820" y="330" width="100" height="100" as="geometry" />
        </mxCell>
        <mxCell id="vLO9-Lh8UrGpiSDHTogs-52" value="" style="fontColor=#0066CC;verticalAlign=top;verticalLabelPosition=bottom;labelPosition=center;align=center;html=1;outlineConnect=0;fillColor=#CCCCCC;strokeColor=#6881B3;gradientColor=none;gradientDirection=north;strokeWidth=2;shape=mxgraph.networks.phone_2;" vertex="1" parent="1">
          <mxGeometry x="-2380" y="49" width="100" height="90" as="geometry" />
        </mxCell>
        <mxCell id="vLO9-Lh8UrGpiSDHTogs-56" value="workstation" style="fontColor=#0066CC;verticalAlign=top;verticalLabelPosition=bottom;labelPosition=center;align=center;html=1;fillColor=#CCCCCC;strokeColor=#6881B3;gradientColor=none;gradientDirection=north;strokeWidth=2;shape=mxgraph.networks.pc;rounded=1;shadow=0;comic=0;labelBackgroundColor=#ffffff;" vertex="1" parent="1">
          <mxGeometry x="-1340" y="220" width="100" height="70" as="geometry" />
        </mxCell>
        <mxCell id="vLO9-Lh8UrGpiSDHTogs-57" value="workstation" style="fontColor=#0066CC;verticalAlign=top;verticalLabelPosition=bottom;labelPosition=center;align=center;html=1;fillColor=#CCCCCC;strokeColor=#6881B3;gradientColor=none;gradientDirection=north;strokeWidth=2;shape=mxgraph.networks.pc;rounded=1;shadow=0;comic=0;labelBackgroundColor=#ffffff;" vertex="1" parent="1">
          <mxGeometry x="-1340" y="59" width="100" height="70" as="geometry" />
        </mxCell>
        <mxCell id="vLO9-Lh8UrGpiSDHTogs-59" value="" style="fontColor=#0066CC;verticalAlign=top;verticalLabelPosition=bottom;labelPosition=center;align=center;html=1;outlineConnect=0;fillColor=#CCCCCC;strokeColor=#6881B3;gradientColor=none;gradientDirection=north;strokeWidth=2;shape=mxgraph.networks.phone_2;" vertex="1" parent="1">
          <mxGeometry x="-1110" y="70" width="100" height="90" as="geometry" />
        </mxCell>
        <mxCell id="vLO9-Lh8UrGpiSDHTogs-60" value="printer" style="fontColor=#0066CC;verticalAlign=top;verticalLabelPosition=bottom;labelPosition=center;align=center;html=1;fillColor=#CCCCCC;strokeColor=#6881B3;gradientColor=none;gradientDirection=north;strokeWidth=2;shape=mxgraph.networks.printer;rounded=1;shadow=0;comic=0;labelBackgroundColor=#ffffff;" vertex="1" parent="1">
          <mxGeometry x="-990" y="370" width="100" height="100" as="geometry" />
        </mxCell>
        <mxCell id="vLO9-Lh8UrGpiSDHTogs-63" value="workstation" style="fontColor=#0066CC;verticalAlign=top;verticalLabelPosition=bottom;labelPosition=center;align=center;html=1;fillColor=#CCCCCC;strokeColor=#6881B3;gradientColor=none;gradientDirection=north;strokeWidth=2;shape=mxgraph.networks.pc;rounded=1;shadow=0;comic=0;labelBackgroundColor=#ffffff;" vertex="1" parent="1">
          <mxGeometry x="-500" y="360" width="100" height="70" as="geometry" />
        </mxCell>
        <mxCell id="vLO9-Lh8UrGpiSDHTogs-64" value="workstation" style="fontColor=#0066CC;verticalAlign=top;verticalLabelPosition=bottom;labelPosition=center;align=center;html=1;fillColor=#CCCCCC;strokeColor=#6881B3;gradientColor=none;gradientDirection=north;strokeWidth=2;shape=mxgraph.networks.pc;rounded=1;shadow=0;comic=0;labelBackgroundColor=#ffffff;" vertex="1" parent="1">
          <mxGeometry x="-513" y="180" width="100" height="70" as="geometry" />
        </mxCell>
        <mxCell id="vLO9-Lh8UrGpiSDHTogs-65" value="" style="fontColor=#0066CC;verticalAlign=top;verticalLabelPosition=bottom;labelPosition=center;align=center;html=1;outlineConnect=0;fillColor=#CCCCCC;strokeColor=#6881B3;gradientColor=none;gradientDirection=north;strokeWidth=2;shape=mxgraph.networks.phone_2;" vertex="1" parent="1">
          <mxGeometry x="-680" y="100" width="100" height="90" as="geometry" />
        </mxCell>
        <mxCell id="vLO9-Lh8UrGpiSDHTogs-74" value="" style="fontColor=#0066CC;verticalAlign=top;verticalLabelPosition=bottom;labelPosition=center;align=center;html=1;outlineConnect=0;fillColor=#CCCCCC;strokeColor=#6881B3;gradientColor=none;gradientDirection=north;strokeWidth=2;shape=mxgraph.networks.phone_2;" vertex="1" parent="1">
          <mxGeometry x="-680" y="230" width="100" height="90" as="geometry" />
        </mxCell>
        <mxCell id="vLO9-Lh8UrGpiSDHTogs-96" value="workstation" style="fontColor=#0066CC;verticalAlign=top;verticalLabelPosition=bottom;labelPosition=center;align=center;html=1;fillColor=#CCCCCC;strokeColor=#6881B3;gradientColor=none;gradientDirection=north;strokeWidth=2;shape=mxgraph.networks.pc;rounded=1;shadow=0;comic=0;labelBackgroundColor=#ffffff;" vertex="1" parent="1">
          <mxGeometry x="1680" y="230" width="100" height="70" as="geometry" />
        </mxCell>
        <mxCell id="vLO9-Lh8UrGpiSDHTogs-100" value="printer" style="fontColor=#0066CC;verticalAlign=top;verticalLabelPosition=bottom;labelPosition=center;align=center;html=1;fillColor=#CCCCCC;strokeColor=#6881B3;gradientColor=none;gradientDirection=north;strokeWidth=2;shape=mxgraph.networks.printer;rounded=1;shadow=0;comic=0;labelBackgroundColor=#ffffff;" vertex="1" parent="1">
          <mxGeometry x="1720" y="530" width="100" height="100" as="geometry" />
        </mxCell>
        <mxCell id="vLO9-Lh8UrGpiSDHTogs-133" value="workstation" style="fontColor=#0066CC;verticalAlign=top;verticalLabelPosition=bottom;labelPosition=center;align=center;html=1;fillColor=#CCCCCC;strokeColor=#6881B3;gradientColor=none;gradientDirection=north;strokeWidth=2;shape=mxgraph.networks.pc;rounded=1;shadow=0;comic=0;labelBackgroundColor=#ffffff;" vertex="1" parent="1">
          <mxGeometry x="2260" y="230" width="100" height="70" as="geometry" />
        </mxCell>
        <mxCell id="vLO9-Lh8UrGpiSDHTogs-134" value="workstation" style="fontColor=#0066CC;verticalAlign=top;verticalLabelPosition=bottom;labelPosition=center;align=center;html=1;fillColor=#CCCCCC;strokeColor=#6881B3;gradientColor=none;gradientDirection=north;strokeWidth=2;shape=mxgraph.networks.pc;rounded=1;shadow=0;comic=0;labelBackgroundColor=#ffffff;" vertex="1" parent="1">
          <mxGeometry x="2110" y="230" width="100" height="70" as="geometry" />
        </mxCell>
        <mxCell id="vLO9-Lh8UrGpiSDHTogs-135" value="" style="fontColor=#0066CC;verticalAlign=top;verticalLabelPosition=bottom;labelPosition=center;align=center;html=1;outlineConnect=0;fillColor=#CCCCCC;strokeColor=#6881B3;gradientColor=none;gradientDirection=north;strokeWidth=2;shape=mxgraph.networks.phone_2;" vertex="1" parent="1">
          <mxGeometry x="2370" y="39" width="100" height="90" as="geometry" />
        </mxCell>
        <mxCell id="vLO9-Lh8UrGpiSDHTogs-137" value="printer" style="fontColor=#0066CC;verticalAlign=top;verticalLabelPosition=bottom;labelPosition=center;align=center;html=1;fillColor=#CCCCCC;strokeColor=#6881B3;gradientColor=none;gradientDirection=north;strokeWidth=2;shape=mxgraph.networks.printer;rounded=1;shadow=0;comic=0;labelBackgroundColor=#ffffff;" vertex="1" parent="1">
          <mxGeometry x="2020" y="535" width="100" height="100" as="geometry" />
        </mxCell>
        <mxCell id="vLO9-Lh8UrGpiSDHTogs-138" value="workstation" style="fontColor=#0066CC;verticalAlign=top;verticalLabelPosition=bottom;labelPosition=center;align=center;html=1;fillColor=#CCCCCC;strokeColor=#6881B3;gradientColor=none;gradientDirection=north;strokeWidth=2;shape=mxgraph.networks.pc;rounded=1;shadow=0;comic=0;labelBackgroundColor=#ffffff;" vertex="1" parent="1">
          <mxGeometry x="2260" y="360" width="100" height="70" as="geometry" />
        </mxCell>
        <mxCell id="vLO9-Lh8UrGpiSDHTogs-139" value="workstation" style="fontColor=#0066CC;verticalAlign=top;verticalLabelPosition=bottom;labelPosition=center;align=center;html=1;fillColor=#CCCCCC;strokeColor=#6881B3;gradientColor=none;gradientDirection=north;strokeWidth=2;shape=mxgraph.networks.pc;rounded=1;shadow=0;comic=0;labelBackgroundColor=#ffffff;" vertex="1" parent="1">
          <mxGeometry x="2110" y="360" width="100" height="70" as="geometry" />
        </mxCell>
        <mxCell id="vLO9-Lh8UrGpiSDHTogs-140" value="workstation" style="fontColor=#0066CC;verticalAlign=top;verticalLabelPosition=bottom;labelPosition=center;align=center;html=1;fillColor=#CCCCCC;strokeColor=#6881B3;gradientColor=none;gradientDirection=north;strokeWidth=2;shape=mxgraph.networks.pc;rounded=1;shadow=0;comic=0;labelBackgroundColor=#ffffff;" vertex="1" parent="1">
          <mxGeometry x="3120" y="250" width="100" height="70" as="geometry" />
        </mxCell>
        <mxCell id="vLO9-Lh8UrGpiSDHTogs-142" value="" style="fontColor=#0066CC;verticalAlign=top;verticalLabelPosition=bottom;labelPosition=center;align=center;html=1;outlineConnect=0;fillColor=#CCCCCC;strokeColor=#6881B3;gradientColor=none;gradientDirection=north;strokeWidth=2;shape=mxgraph.networks.phone_2;" vertex="1" parent="1">
          <mxGeometry x="2990" y="39" width="100" height="90" as="geometry" />
        </mxCell>
        <mxCell id="vLO9-Lh8UrGpiSDHTogs-144" value="workstation" style="fontColor=#0066CC;verticalAlign=top;verticalLabelPosition=bottom;labelPosition=center;align=center;html=1;fillColor=#CCCCCC;strokeColor=#6881B3;gradientColor=none;gradientDirection=north;strokeWidth=2;shape=mxgraph.networks.pc;rounded=1;shadow=0;comic=0;labelBackgroundColor=#ffffff;" vertex="1" parent="1">
          <mxGeometry x="3170" y="465" width="100" height="70" as="geometry" />
        </mxCell>
        <mxCell id="vLO9-Lh8UrGpiSDHTogs-145" value="workstation" style="fontColor=#0066CC;verticalAlign=top;verticalLabelPosition=bottom;labelPosition=center;align=center;html=1;fillColor=#CCCCCC;strokeColor=#6881B3;gradientColor=none;gradientDirection=north;strokeWidth=2;shape=mxgraph.networks.pc;rounded=1;shadow=0;comic=0;labelBackgroundColor=#ffffff;" vertex="1" parent="1">
          <mxGeometry x="3000" y="385" width="100" height="70" as="geometry" />
        </mxCell>
        <mxCell id="vLO9-Lh8UrGpiSDHTogs-168" value="workstation" style="fontColor=#0066CC;verticalAlign=top;verticalLabelPosition=bottom;labelPosition=center;align=center;html=1;fillColor=#CCCCCC;strokeColor=#6881B3;gradientColor=none;gradientDirection=north;strokeWidth=2;shape=mxgraph.networks.pc;rounded=1;shadow=0;comic=0;labelBackgroundColor=#ffffff;" vertex="1" parent="1">
          <mxGeometry x="2330" y="1380" width="100" height="70" as="geometry" />
        </mxCell>
        <mxCell id="vLO9-Lh8UrGpiSDHTogs-169" value="workstation" style="fontColor=#0066CC;verticalAlign=top;verticalLabelPosition=bottom;labelPosition=center;align=center;html=1;fillColor=#CCCCCC;strokeColor=#6881B3;gradientColor=none;gradientDirection=north;strokeWidth=2;shape=mxgraph.networks.pc;rounded=1;shadow=0;comic=0;labelBackgroundColor=#ffffff;" vertex="1" parent="1">
          <mxGeometry x="2180" y="1380" width="100" height="70" as="geometry" />
        </mxCell>
        <mxCell id="vLO9-Lh8UrGpiSDHTogs-170" value="" style="fontColor=#0066CC;verticalAlign=top;verticalLabelPosition=bottom;labelPosition=center;align=center;html=1;outlineConnect=0;fillColor=#CCCCCC;strokeColor=#6881B3;gradientColor=none;gradientDirection=north;strokeWidth=2;shape=mxgraph.networks.phone_2;" vertex="1" parent="1">
          <mxGeometry x="2018" y="1230" width="100" height="90" as="geometry" />
        </mxCell>
        <mxCell id="vLO9-Lh8UrGpiSDHTogs-171" value="printer" style="fontColor=#0066CC;verticalAlign=top;verticalLabelPosition=bottom;labelPosition=center;align=center;html=1;fillColor=#CCCCCC;strokeColor=#6881B3;gradientColor=none;gradientDirection=north;strokeWidth=2;shape=mxgraph.networks.printer;rounded=1;shadow=0;comic=0;labelBackgroundColor=#ffffff;" vertex="1" parent="1">
          <mxGeometry x="2370" y="1740" width="100" height="100" as="geometry" />
        </mxCell>
        <mxCell id="vLO9-Lh8UrGpiSDHTogs-172" value="workstation" style="fontColor=#0066CC;verticalAlign=top;verticalLabelPosition=bottom;labelPosition=center;align=center;html=1;fillColor=#CCCCCC;strokeColor=#6881B3;gradientColor=none;gradientDirection=north;strokeWidth=2;shape=mxgraph.networks.pc;rounded=1;shadow=0;comic=0;labelBackgroundColor=#ffffff;" vertex="1" parent="1">
          <mxGeometry x="2260" y="1520" width="100" height="70" as="geometry" />
        </mxCell>
        <mxCell id="vLO9-Lh8UrGpiSDHTogs-174" value="workstation" style="fontColor=#0066CC;verticalAlign=top;verticalLabelPosition=bottom;labelPosition=center;align=center;html=1;fillColor=#CCCCCC;strokeColor=#6881B3;gradientColor=none;gradientDirection=north;strokeWidth=2;shape=mxgraph.networks.pc;rounded=1;shadow=0;comic=0;labelBackgroundColor=#ffffff;" vertex="1" parent="1">
          <mxGeometry x="3180" y="1400" width="100" height="70" as="geometry" />
        </mxCell>
        <mxCell id="vLO9-Lh8UrGpiSDHTogs-175" value="workstation" style="fontColor=#0066CC;verticalAlign=top;verticalLabelPosition=bottom;labelPosition=center;align=center;html=1;fillColor=#CCCCCC;strokeColor=#6881B3;gradientColor=none;gradientDirection=north;strokeWidth=2;shape=mxgraph.networks.pc;rounded=1;shadow=0;comic=0;labelBackgroundColor=#ffffff;" vertex="1" parent="1">
          <mxGeometry x="3030" y="1400" width="100" height="70" as="geometry" />
        </mxCell>
        <mxCell id="vLO9-Lh8UrGpiSDHTogs-176" value="" style="fontColor=#0066CC;verticalAlign=top;verticalLabelPosition=bottom;labelPosition=center;align=center;html=1;outlineConnect=0;fillColor=#CCCCCC;strokeColor=#6881B3;gradientColor=none;gradientDirection=north;strokeWidth=2;shape=mxgraph.networks.phone_2;" vertex="1" parent="1">
          <mxGeometry x="2920" y="1220" width="100" height="90" as="geometry" />
        </mxCell>
        <mxCell id="vLO9-Lh8UrGpiSDHTogs-177" value="printer" style="fontColor=#0066CC;verticalAlign=top;verticalLabelPosition=bottom;labelPosition=center;align=center;html=1;fillColor=#CCCCCC;strokeColor=#6881B3;gradientColor=none;gradientDirection=north;strokeWidth=2;shape=mxgraph.networks.printer;rounded=1;shadow=0;comic=0;labelBackgroundColor=#ffffff;" vertex="1" parent="1">
          <mxGeometry x="3170" y="1630" width="100" height="100" as="geometry" />
        </mxCell>
        <mxCell id="vLO9-Lh8UrGpiSDHTogs-270" style="edgeStyle=none;rounded=0;orthogonalLoop=1;jettySize=auto;html=1;exitX=0.5;exitY=1;exitDx=0;exitDy=0;exitPerimeter=0;entryX=0;entryY=0;entryDx=0;entryDy=0;entryPerimeter=0;shadow=0;strokeColor=#6881B3;strokeWidth=2;endArrow=none;endFill=0;" edge="1" parent="1" source="vLO9-Lh8UrGpiSDHTogs-231" target="vLO9-Lh8UrGpiSDHTogs-256">
          <mxGeometry relative="1" as="geometry" />
        </mxCell>
        <mxCell id="vLO9-Lh8UrGpiSDHTogs-271" style="edgeStyle=none;rounded=0;orthogonalLoop=1;jettySize=auto;html=1;exitX=0.5;exitY=1;exitDx=0;exitDy=0;exitPerimeter=0;entryX=0;entryY=0;entryDx=0;entryDy=0;entryPerimeter=0;shadow=0;strokeColor=#6881B3;strokeWidth=2;endArrow=none;endFill=0;" edge="1" parent="1" source="vLO9-Lh8UrGpiSDHTogs-231" target="vLO9-Lh8UrGpiSDHTogs-266">
          <mxGeometry relative="1" as="geometry" />
        </mxCell>
        <mxCell id="vLO9-Lh8UrGpiSDHTogs-272" style="edgeStyle=none;rounded=0;orthogonalLoop=1;jettySize=auto;html=1;exitX=0.5;exitY=1;exitDx=0;exitDy=0;exitPerimeter=0;entryX=0;entryY=0;entryDx=0;entryDy=0;entryPerimeter=0;shadow=0;strokeColor=#6881B3;strokeWidth=2;endArrow=none;endFill=0;" edge="1" parent="1" source="vLO9-Lh8UrGpiSDHTogs-231" target="vLO9-Lh8UrGpiSDHTogs-265">
          <mxGeometry relative="1" as="geometry" />
        </mxCell>
        <mxCell id="vLO9-Lh8UrGpiSDHTogs-273" style="edgeStyle=none;rounded=0;orthogonalLoop=1;jettySize=auto;html=1;exitX=0.5;exitY=1;exitDx=0;exitDy=0;exitPerimeter=0;entryX=0;entryY=0;entryDx=0;entryDy=0;entryPerimeter=0;shadow=0;strokeColor=#6881B3;strokeWidth=2;endArrow=none;endFill=0;" edge="1" parent="1" source="vLO9-Lh8UrGpiSDHTogs-231" target="vLO9-Lh8UrGpiSDHTogs-255">
          <mxGeometry relative="1" as="geometry" />
        </mxCell>
        <mxCell id="vLO9-Lh8UrGpiSDHTogs-274" style="edgeStyle=none;rounded=0;orthogonalLoop=1;jettySize=auto;html=1;exitX=0.5;exitY=1;exitDx=0;exitDy=0;exitPerimeter=0;entryX=0.02;entryY=0.12;entryDx=0;entryDy=0;entryPerimeter=0;shadow=0;strokeColor=#6881B3;strokeWidth=2;endArrow=none;endFill=0;" edge="1" parent="1" source="vLO9-Lh8UrGpiSDHTogs-231" target="vLO9-Lh8UrGpiSDHTogs-257">
          <mxGeometry relative="1" as="geometry" />
        </mxCell>
        <mxCell id="vLO9-Lh8UrGpiSDHTogs-275" style="edgeStyle=none;rounded=0;orthogonalLoop=1;jettySize=auto;html=1;exitX=0.9;exitY=1;exitDx=0;exitDy=0;exitPerimeter=0;entryX=0;entryY=0;entryDx=0;entryDy=0;entryPerimeter=0;shadow=0;strokeColor=#6881B3;strokeWidth=2;endArrow=none;endFill=0;" edge="1" parent="1" source="vLO9-Lh8UrGpiSDHTogs-231" target="vLO9-Lh8UrGpiSDHTogs-261">
          <mxGeometry relative="1" as="geometry" />
        </mxCell>
        <mxCell id="vLO9-Lh8UrGpiSDHTogs-276" style="edgeStyle=none;rounded=0;orthogonalLoop=1;jettySize=auto;html=1;exitX=0.9;exitY=1;exitDx=0;exitDy=0;exitPerimeter=0;entryX=0;entryY=0;entryDx=0;entryDy=0;entryPerimeter=0;shadow=0;strokeColor=#6881B3;strokeWidth=2;endArrow=none;endFill=0;" edge="1" parent="1" source="vLO9-Lh8UrGpiSDHTogs-231" target="vLO9-Lh8UrGpiSDHTogs-268">
          <mxGeometry relative="1" as="geometry" />
        </mxCell>
        <mxCell id="vLO9-Lh8UrGpiSDHTogs-277" style="edgeStyle=none;rounded=0;orthogonalLoop=1;jettySize=auto;html=1;exitX=0.9;exitY=1;exitDx=0;exitDy=0;exitPerimeter=0;entryX=0;entryY=0;entryDx=0;entryDy=0;entryPerimeter=0;shadow=0;strokeColor=#6881B3;strokeWidth=2;endArrow=none;endFill=0;" edge="1" parent="1" source="vLO9-Lh8UrGpiSDHTogs-231" target="vLO9-Lh8UrGpiSDHTogs-260">
          <mxGeometry relative="1" as="geometry" />
        </mxCell>
        <mxCell id="vLO9-Lh8UrGpiSDHTogs-278" style="edgeStyle=none;rounded=0;orthogonalLoop=1;jettySize=auto;html=1;exitX=0.9;exitY=1;exitDx=0;exitDy=0;exitPerimeter=0;entryX=0;entryY=0;entryDx=0;entryDy=0;entryPerimeter=0;shadow=0;strokeColor=#6881B3;strokeWidth=2;endArrow=none;endFill=0;" edge="1" parent="1" source="vLO9-Lh8UrGpiSDHTogs-231" target="vLO9-Lh8UrGpiSDHTogs-267">
          <mxGeometry relative="1" as="geometry" />
        </mxCell>
        <mxCell id="vLO9-Lh8UrGpiSDHTogs-279" style="edgeStyle=none;rounded=0;orthogonalLoop=1;jettySize=auto;html=1;exitX=0.9;exitY=1;exitDx=0;exitDy=0;exitPerimeter=0;entryX=0.2;entryY=0;entryDx=0;entryDy=0;entryPerimeter=0;shadow=0;strokeColor=#6881B3;strokeWidth=2;endArrow=none;endFill=0;" edge="1" parent="1" source="vLO9-Lh8UrGpiSDHTogs-231" target="vLO9-Lh8UrGpiSDHTogs-263">
          <mxGeometry relative="1" as="geometry" />
        </mxCell>
        <mxCell id="vLO9-Lh8UrGpiSDHTogs-280" style="edgeStyle=none;rounded=0;orthogonalLoop=1;jettySize=auto;html=1;exitX=0.9;exitY=1;exitDx=0;exitDy=0;exitPerimeter=0;entryX=0.02;entryY=0.12;entryDx=0;entryDy=0;entryPerimeter=0;shadow=0;strokeColor=#6881B3;strokeWidth=2;endArrow=none;endFill=0;" edge="1" parent="1" source="vLO9-Lh8UrGpiSDHTogs-231" target="vLO9-Lh8UrGpiSDHTogs-262">
          <mxGeometry relative="1" as="geometry" />
        </mxCell>
        <mxCell id="vLO9-Lh8UrGpiSDHTogs-282" style="edgeStyle=none;rounded=0;orthogonalLoop=1;jettySize=auto;html=1;exitX=0.9;exitY=1;exitDx=0;exitDy=0;exitPerimeter=0;entryX=0.95;entryY=0.05;entryDx=0;entryDy=0;entryPerimeter=0;shadow=0;strokeColor=#6881B3;strokeWidth=2;endArrow=none;endFill=0;" edge="1" parent="1" source="vLO9-Lh8UrGpiSDHTogs-231" target="vLO9-Lh8UrGpiSDHTogs-43">
          <mxGeometry relative="1" as="geometry" />
        </mxCell>
        <mxCell id="vLO9-Lh8UrGpiSDHTogs-231" value="switch" style="fontColor=#0066CC;verticalAlign=top;verticalLabelPosition=bottom;labelPosition=center;align=center;html=1;fillColor=#CCCCCC;strokeColor=#6881B3;gradientColor=none;gradientDirection=north;strokeWidth=2;shape=mxgraph.networks.switch;rounded=1;shadow=0;comic=0;labelBackgroundColor=#ffffff;" vertex="1" parent="1">
          <mxGeometry x="70" y="-2221" width="100" height="30" as="geometry" />
        </mxCell>
        <mxCell id="vLO9-Lh8UrGpiSDHTogs-233" style="edgeStyle=none;html=1;labelBackgroundColor=none;endArrow=none;strokeWidth=2;fontFamily=Verdana;fontSize=28;fontColor=#0066CC;rounded=0;strokeColor=#6881B3;entryX=0.95;entryY=1;entryDx=0;entryDy=0;entryPerimeter=0;exitX=0.5;exitY=0;exitDx=0;exitDy=0;exitPerimeter=0;" edge="1" parent="1" source="vLO9-Lh8UrGpiSDHTogs-231" target="vLO9-Lh8UrGpiSDHTogs-241">
          <mxGeometry relative="1" as="geometry">
            <mxPoint x="-505" y="-1941" as="sourcePoint" />
            <mxPoint x="-775" y="-2471" as="targetPoint" />
          </mxGeometry>
        </mxCell>
        <mxCell id="vLO9-Lh8UrGpiSDHTogs-235" value="" style="fontColor=#0066CC;verticalAlign=top;verticalLabelPosition=bottom;labelPosition=center;align=center;html=1;outlineConnect=0;fillColor=#CCCCCC;strokeColor=#6881B3;gradientColor=none;gradientDirection=north;strokeWidth=2;shape=mxgraph.networks.phone_2;" vertex="1" parent="1">
          <mxGeometry x="-760" y="-2901" width="100" height="90" as="geometry" />
        </mxCell>
        <mxCell id="vLO9-Lh8UrGpiSDHTogs-236" value="" style="endArrow=none;html=1;rounded=0;shadow=0;strokeColor=#6881B3;strokeWidth=2;exitX=0.98;exitY=0.98;exitDx=0;exitDy=0;exitPerimeter=0;entryX=0.5;entryY=0;entryDx=0;entryDy=0;entryPerimeter=0;" edge="1" parent="1" source="vLO9-Lh8UrGpiSDHTogs-235" target="vLO9-Lh8UrGpiSDHTogs-231">
          <mxGeometry width="50" height="50" relative="1" as="geometry">
            <mxPoint x="275" y="-2051" as="sourcePoint" />
            <mxPoint x="325" y="-2101" as="targetPoint" />
          </mxGeometry>
        </mxCell>
        <mxCell id="vLO9-Lh8UrGpiSDHTogs-237" value="" style="endArrow=none;html=1;rounded=0;shadow=0;strokeColor=#6881B3;strokeWidth=2;exitX=0.95;exitY=1;exitDx=0;exitDy=0;exitPerimeter=0;entryX=0.5;entryY=0;entryDx=0;entryDy=0;entryPerimeter=0;" edge="1" parent="1" source="vLO9-Lh8UrGpiSDHTogs-242" target="vLO9-Lh8UrGpiSDHTogs-231">
          <mxGeometry width="50" height="50" relative="1" as="geometry">
            <mxPoint x="275" y="-2051" as="sourcePoint" />
            <mxPoint x="325" y="-2101" as="targetPoint" />
          </mxGeometry>
        </mxCell>
        <mxCell id="vLO9-Lh8UrGpiSDHTogs-239" value="" style="endArrow=none;html=1;rounded=0;shadow=0;strokeColor=#6881B3;strokeWidth=2;exitX=0.9;exitY=1;exitDx=0;exitDy=0;exitPerimeter=0;entryX=0.5;entryY=0;entryDx=0;entryDy=0;entryPerimeter=0;" edge="1" parent="1" source="vLO9-Lh8UrGpiSDHTogs-243" target="vLO9-Lh8UrGpiSDHTogs-231">
          <mxGeometry width="50" height="50" relative="1" as="geometry">
            <mxPoint x="275" y="-2051" as="sourcePoint" />
            <mxPoint x="325" y="-2101" as="targetPoint" />
          </mxGeometry>
        </mxCell>
        <mxCell id="vLO9-Lh8UrGpiSDHTogs-241" value="workstation" style="fontColor=#0066CC;verticalAlign=top;verticalLabelPosition=bottom;labelPosition=center;align=center;html=1;fillColor=#CCCCCC;strokeColor=#6881B3;gradientColor=none;gradientDirection=north;strokeWidth=2;shape=mxgraph.networks.pc;rounded=1;shadow=0;comic=0;labelBackgroundColor=#ffffff;" vertex="1" parent="1">
          <mxGeometry x="-410" y="-2811" width="100" height="70" as="geometry" />
        </mxCell>
        <mxCell id="vLO9-Lh8UrGpiSDHTogs-242" value="workstation" style="fontColor=#0066CC;verticalAlign=top;verticalLabelPosition=bottom;labelPosition=center;align=center;html=1;fillColor=#CCCCCC;strokeColor=#6881B3;gradientColor=none;gradientDirection=north;strokeWidth=2;shape=mxgraph.networks.pc;rounded=1;shadow=0;comic=0;labelBackgroundColor=#ffffff;" vertex="1" parent="1">
          <mxGeometry x="-550" y="-2811" width="100" height="70" as="geometry" />
        </mxCell>
        <mxCell id="vLO9-Lh8UrGpiSDHTogs-283" style="edgeStyle=none;rounded=0;orthogonalLoop=1;jettySize=auto;html=1;exitX=0.9;exitY=1;exitDx=0;exitDy=0;exitPerimeter=0;shadow=0;strokeColor=#6881B3;strokeWidth=2;endArrow=none;endFill=0;entryX=0.5;entryY=0;entryDx=0;entryDy=0;entryPerimeter=0;" edge="1" parent="1" source="vLO9-Lh8UrGpiSDHTogs-43" target="rlLohxctgZkNJzzYIbeg-1">
          <mxGeometry relative="1" as="geometry">
            <mxPoint x="149" y="2670" as="targetPoint" />
          </mxGeometry>
        </mxCell>
        <mxCell id="vLO9-Lh8UrGpiSDHTogs-43" value="switch" style="fontColor=#0066CC;verticalAlign=top;verticalLabelPosition=bottom;labelPosition=center;align=center;html=1;fillColor=#CCCCCC;strokeColor=#6881B3;gradientColor=none;gradientDirection=north;strokeWidth=2;shape=mxgraph.networks.switch;rounded=1;shadow=0;comic=0;labelBackgroundColor=#ffffff;" vertex="1" parent="1">
          <mxGeometry x="60" y="643" width="100" height="30" as="geometry" />
        </mxCell>
        <mxCell id="rlLohxctgZkNJzzYIbeg-34" style="edgeStyle=none;rounded=0;orthogonalLoop=1;jettySize=auto;html=1;exitX=0.1;exitY=1;exitDx=0;exitDy=0;exitPerimeter=0;entryX=0.9;entryY=1;entryDx=0;entryDy=0;entryPerimeter=0;shadow=0;strokeColor=#6881B3;strokeWidth=2;endArrow=none;endFill=0;" edge="1" parent="1" source="vLO9-Lh8UrGpiSDHTogs-132" target="vLO9-Lh8UrGpiSDHTogs-43">
          <mxGeometry relative="1" as="geometry" />
        </mxCell>
        <mxCell id="vLO9-Lh8UrGpiSDHTogs-132" value="switch" style="fontColor=#0066CC;verticalAlign=top;verticalLabelPosition=bottom;labelPosition=center;align=center;html=1;fillColor=#CCCCCC;strokeColor=#6881B3;gradientColor=none;gradientDirection=north;strokeWidth=2;shape=mxgraph.networks.switch;rounded=1;shadow=0;comic=0;labelBackgroundColor=#ffffff;" vertex="1" parent="1">
          <mxGeometry x="1450" y="646" width="100" height="30" as="geometry" />
        </mxCell>
        <mxCell id="vLO9-Lh8UrGpiSDHTogs-249" style="edgeStyle=none;rounded=0;orthogonalLoop=1;jettySize=auto;html=1;exitX=0.5;exitY=1;exitDx=0;exitDy=0;exitPerimeter=0;shadow=0;strokeColor=#6881B3;strokeWidth=2;endArrow=none;endFill=0;entryX=0.5;entryY=0;entryDx=0;entryDy=0;entryPerimeter=0;" edge="1" parent="1" source="vLO9-Lh8UrGpiSDHTogs-246" target="vLO9-Lh8UrGpiSDHTogs-231">
          <mxGeometry relative="1" as="geometry">
            <mxPoint x="40" y="-2181" as="targetPoint" />
          </mxGeometry>
        </mxCell>
        <mxCell id="vLO9-Lh8UrGpiSDHTogs-246" value="workstation" style="fontColor=#0066CC;verticalAlign=top;verticalLabelPosition=bottom;labelPosition=center;align=center;html=1;fillColor=#CCCCCC;strokeColor=#6881B3;gradientColor=none;gradientDirection=north;strokeWidth=2;shape=mxgraph.networks.pc;rounded=1;shadow=0;comic=0;labelBackgroundColor=#ffffff;" vertex="1" parent="1">
          <mxGeometry x="-20" y="-2811" width="100" height="70" as="geometry" />
        </mxCell>
        <mxCell id="vLO9-Lh8UrGpiSDHTogs-248" style="edgeStyle=none;rounded=0;orthogonalLoop=1;jettySize=auto;html=1;exitX=0.5;exitY=1;exitDx=0;exitDy=0;exitPerimeter=0;entryX=0.5;entryY=0;entryDx=0;entryDy=0;entryPerimeter=0;shadow=0;strokeColor=#6881B3;strokeWidth=2;endArrow=none;endFill=0;" edge="1" parent="1" source="vLO9-Lh8UrGpiSDHTogs-247" target="vLO9-Lh8UrGpiSDHTogs-231">
          <mxGeometry relative="1" as="geometry" />
        </mxCell>
        <mxCell id="vLO9-Lh8UrGpiSDHTogs-247" value="workstation" style="fontColor=#0066CC;verticalAlign=top;verticalLabelPosition=bottom;labelPosition=center;align=center;html=1;fillColor=#CCCCCC;strokeColor=#6881B3;gradientColor=none;gradientDirection=north;strokeWidth=2;shape=mxgraph.networks.pc;rounded=1;shadow=0;comic=0;labelBackgroundColor=#ffffff;" vertex="1" parent="1">
          <mxGeometry x="-160" y="-2811" width="100" height="70" as="geometry" />
        </mxCell>
        <mxCell id="vLO9-Lh8UrGpiSDHTogs-243" value="printer" style="fontColor=#0066CC;verticalAlign=top;verticalLabelPosition=bottom;labelPosition=center;align=center;html=1;fillColor=#CCCCCC;strokeColor=#6881B3;gradientColor=none;gradientDirection=north;strokeWidth=2;shape=mxgraph.networks.printer;rounded=1;shadow=0;comic=0;labelBackgroundColor=#ffffff;" vertex="1" parent="1">
          <mxGeometry x="-20" y="-2541" width="100" height="100" as="geometry" />
        </mxCell>
        <mxCell id="vLO9-Lh8UrGpiSDHTogs-255" value="workstation" style="fontColor=#0066CC;verticalAlign=top;verticalLabelPosition=bottom;labelPosition=center;align=center;html=1;fillColor=#CCCCCC;strokeColor=#6881B3;gradientColor=none;gradientDirection=north;strokeWidth=2;shape=mxgraph.networks.pc;rounded=1;shadow=0;comic=0;labelBackgroundColor=#ffffff;" vertex="1" parent="1">
          <mxGeometry x="982" y="-1671" width="100" height="70" as="geometry" />
        </mxCell>
        <mxCell id="vLO9-Lh8UrGpiSDHTogs-256" value="workstation" style="fontColor=#0066CC;verticalAlign=top;verticalLabelPosition=bottom;labelPosition=center;align=center;html=1;fillColor=#CCCCCC;strokeColor=#6881B3;gradientColor=none;gradientDirection=north;strokeWidth=2;shape=mxgraph.networks.pc;rounded=1;shadow=0;comic=0;labelBackgroundColor=#ffffff;" vertex="1" parent="1">
          <mxGeometry x="832" y="-1671" width="100" height="70" as="geometry" />
        </mxCell>
        <mxCell id="vLO9-Lh8UrGpiSDHTogs-257" value="" style="fontColor=#0066CC;verticalAlign=top;verticalLabelPosition=bottom;labelPosition=center;align=center;html=1;outlineConnect=0;fillColor=#CCCCCC;strokeColor=#6881B3;gradientColor=none;gradientDirection=north;strokeWidth=2;shape=mxgraph.networks.phone_2;" vertex="1" parent="1">
          <mxGeometry x="1070" y="-1821" width="100" height="90" as="geometry" />
        </mxCell>
        <mxCell id="vLO9-Lh8UrGpiSDHTogs-260" value="workstation" style="fontColor=#0066CC;verticalAlign=top;verticalLabelPosition=bottom;labelPosition=center;align=center;html=1;fillColor=#CCCCCC;strokeColor=#6881B3;gradientColor=none;gradientDirection=north;strokeWidth=2;shape=mxgraph.networks.pc;rounded=1;shadow=0;comic=0;labelBackgroundColor=#ffffff;" vertex="1" parent="1">
          <mxGeometry x="1540" y="-1671" width="100" height="70" as="geometry" />
        </mxCell>
        <mxCell id="vLO9-Lh8UrGpiSDHTogs-261" value="workstation" style="fontColor=#0066CC;verticalAlign=top;verticalLabelPosition=bottom;labelPosition=center;align=center;html=1;fillColor=#CCCCCC;strokeColor=#6881B3;gradientColor=none;gradientDirection=north;strokeWidth=2;shape=mxgraph.networks.pc;rounded=1;shadow=0;comic=0;labelBackgroundColor=#ffffff;" vertex="1" parent="1">
          <mxGeometry x="1390" y="-1671" width="100" height="70" as="geometry" />
        </mxCell>
        <mxCell id="vLO9-Lh8UrGpiSDHTogs-262" value="" style="fontColor=#0066CC;verticalAlign=top;verticalLabelPosition=bottom;labelPosition=center;align=center;html=1;outlineConnect=0;fillColor=#CCCCCC;strokeColor=#6881B3;gradientColor=none;gradientDirection=north;strokeWidth=2;shape=mxgraph.networks.phone_2;" vertex="1" parent="1">
          <mxGeometry x="1640" y="-1821" width="100" height="90" as="geometry" />
        </mxCell>
        <mxCell id="vLO9-Lh8UrGpiSDHTogs-263" value="printer" style="fontColor=#0066CC;verticalAlign=top;verticalLabelPosition=bottom;labelPosition=center;align=center;html=1;fillColor=#CCCCCC;strokeColor=#6881B3;gradientColor=none;gradientDirection=north;strokeWidth=2;shape=mxgraph.networks.printer;rounded=1;shadow=0;comic=0;labelBackgroundColor=#ffffff;" vertex="1" parent="1">
          <mxGeometry x="1390" y="-1351" width="100" height="100" as="geometry" />
        </mxCell>
        <mxCell id="vLO9-Lh8UrGpiSDHTogs-265" value="workstation" style="fontColor=#0066CC;verticalAlign=top;verticalLabelPosition=bottom;labelPosition=center;align=center;html=1;fillColor=#CCCCCC;strokeColor=#6881B3;gradientColor=none;gradientDirection=north;strokeWidth=2;shape=mxgraph.networks.pc;rounded=1;shadow=0;comic=0;labelBackgroundColor=#ffffff;" vertex="1" parent="1">
          <mxGeometry x="982" y="-1531" width="100" height="70" as="geometry" />
        </mxCell>
        <mxCell id="vLO9-Lh8UrGpiSDHTogs-266" value="workstation" style="fontColor=#0066CC;verticalAlign=top;verticalLabelPosition=bottom;labelPosition=center;align=center;html=1;fillColor=#CCCCCC;strokeColor=#6881B3;gradientColor=none;gradientDirection=north;strokeWidth=2;shape=mxgraph.networks.pc;rounded=1;shadow=0;comic=0;labelBackgroundColor=#ffffff;" vertex="1" parent="1">
          <mxGeometry x="832" y="-1531" width="100" height="70" as="geometry" />
        </mxCell>
        <mxCell id="vLO9-Lh8UrGpiSDHTogs-267" value="workstation" style="fontColor=#0066CC;verticalAlign=top;verticalLabelPosition=bottom;labelPosition=center;align=center;html=1;fillColor=#CCCCCC;strokeColor=#6881B3;gradientColor=none;gradientDirection=north;strokeWidth=2;shape=mxgraph.networks.pc;rounded=1;shadow=0;comic=0;labelBackgroundColor=#ffffff;" vertex="1" parent="1">
          <mxGeometry x="1542" y="-1531" width="100" height="70" as="geometry" />
        </mxCell>
        <mxCell id="vLO9-Lh8UrGpiSDHTogs-268" value="workstation" style="fontColor=#0066CC;verticalAlign=top;verticalLabelPosition=bottom;labelPosition=center;align=center;html=1;fillColor=#CCCCCC;strokeColor=#6881B3;gradientColor=none;gradientDirection=north;strokeWidth=2;shape=mxgraph.networks.pc;rounded=1;shadow=0;comic=0;labelBackgroundColor=#ffffff;" vertex="1" parent="1">
          <mxGeometry x="1392" y="-1531" width="100" height="70" as="geometry" />
        </mxCell>
        <mxCell id="rlLohxctgZkNJzzYIbeg-1" value="server" style="fontColor=#0066CC;verticalAlign=top;verticalLabelPosition=bottom;labelPosition=center;align=center;html=1;fillColor=#CCCCCC;strokeColor=#6881B3;gradientColor=none;gradientDirection=north;strokeWidth=2;shape=mxgraph.networks.server;rounded=1;shadow=0;comic=0;labelBackgroundColor=#ffffff;" vertex="1" parent="1">
          <mxGeometry x="103" y="2670" width="90" height="100" as="geometry" />
        </mxCell>
        <mxCell id="rlLohxctgZkNJzzYIbeg-2" style="edgeStyle=none;html=1;labelBackgroundColor=none;endArrow=none;strokeWidth=2;fontFamily=Verdana;fontSize=28;fontColor=#0066CC;rounded=0;strokeColor=#6881B3;" edge="1" parent="1" source="rlLohxctgZkNJzzYIbeg-9" target="rlLohxctgZkNJzzYIbeg-10">
          <mxGeometry relative="1" as="geometry" />
        </mxCell>
        <mxCell id="rlLohxctgZkNJzzYIbeg-3" style="edgeStyle=none;html=1;labelBackgroundColor=none;endArrow=none;strokeWidth=2;fontFamily=Verdana;fontSize=28;fontColor=#0066CC;rounded=0;strokeColor=#6881B3;" edge="1" parent="1" source="rlLohxctgZkNJzzYIbeg-9" target="rlLohxctgZkNJzzYIbeg-11">
          <mxGeometry relative="1" as="geometry" />
        </mxCell>
        <mxCell id="rlLohxctgZkNJzzYIbeg-4" style="edgeStyle=none;html=1;labelBackgroundColor=none;endArrow=none;strokeWidth=2;fontFamily=Verdana;fontSize=28;fontColor=#0066CC;rounded=0;strokeColor=#6881B3;" edge="1" parent="1" source="rlLohxctgZkNJzzYIbeg-9" target="rlLohxctgZkNJzzYIbeg-12">
          <mxGeometry relative="1" as="geometry" />
        </mxCell>
        <mxCell id="rlLohxctgZkNJzzYIbeg-5" style="edgeStyle=none;html=1;labelBackgroundColor=none;endArrow=none;strokeWidth=2;fontFamily=Verdana;fontSize=28;fontColor=#0066CC;rounded=0;strokeColor=#6881B3;" edge="1" parent="1" source="rlLohxctgZkNJzzYIbeg-9" target="rlLohxctgZkNJzzYIbeg-15">
          <mxGeometry relative="1" as="geometry" />
        </mxCell>
        <mxCell id="rlLohxctgZkNJzzYIbeg-6" style="edgeStyle=none;html=1;labelBackgroundColor=none;endArrow=none;strokeWidth=2;fontFamily=Verdana;fontSize=28;fontColor=#0066CC;rounded=0;strokeColor=#6881B3;" edge="1" parent="1" source="rlLohxctgZkNJzzYIbeg-9" target="rlLohxctgZkNJzzYIbeg-14">
          <mxGeometry relative="1" as="geometry" />
        </mxCell>
        <mxCell id="rlLohxctgZkNJzzYIbeg-7" style="edgeStyle=none;html=1;labelBackgroundColor=none;endArrow=none;strokeWidth=2;fontFamily=Verdana;fontSize=28;fontColor=#0066CC;rounded=0;strokeColor=#6881B3;" edge="1" parent="1" source="rlLohxctgZkNJzzYIbeg-9" target="rlLohxctgZkNJzzYIbeg-13">
          <mxGeometry relative="1" as="geometry" />
        </mxCell>
        <mxCell id="rlLohxctgZkNJzzYIbeg-8" style="edgeStyle=none;html=1;labelBackgroundColor=none;endArrow=none;strokeWidth=2;fontFamily=Verdana;fontSize=28;fontColor=#0066CC;rounded=0;strokeColor=#6881B3;" edge="1" parent="1" source="rlLohxctgZkNJzzYIbeg-9" target="rlLohxctgZkNJzzYIbeg-1">
          <mxGeometry relative="1" as="geometry" />
        </mxCell>
        <mxCell id="rlLohxctgZkNJzzYIbeg-10" value="workstation" style="fontColor=#0066CC;verticalAlign=top;verticalLabelPosition=bottom;labelPosition=center;align=center;html=1;fillColor=#CCCCCC;strokeColor=#6881B3;gradientColor=none;gradientDirection=north;strokeWidth=2;shape=mxgraph.networks.pc;rounded=1;shadow=0;comic=0;labelBackgroundColor=#ffffff;" vertex="1" parent="1">
          <mxGeometry x="-1511" y="3410" width="100" height="70" as="geometry" />
        </mxCell>
        <mxCell id="rlLohxctgZkNJzzYIbeg-11" value="workstation" style="fontColor=#0066CC;verticalAlign=top;verticalLabelPosition=bottom;labelPosition=center;align=center;html=1;fillColor=#CCCCCC;strokeColor=#6881B3;gradientColor=none;gradientDirection=north;strokeWidth=2;shape=mxgraph.networks.pc;rounded=1;shadow=0;comic=0;labelBackgroundColor=#ffffff;" vertex="1" parent="1">
          <mxGeometry x="-820" y="2380" width="100" height="70" as="geometry" />
        </mxCell>
        <mxCell id="rlLohxctgZkNJzzYIbeg-12" value="workstation" style="fontColor=#0066CC;verticalAlign=top;verticalLabelPosition=bottom;labelPosition=center;align=center;html=1;fillColor=#CCCCCC;strokeColor=#6881B3;gradientColor=none;gradientDirection=north;strokeWidth=2;shape=mxgraph.networks.pc;rounded=1;shadow=0;comic=0;labelBackgroundColor=#ffffff;" vertex="1" parent="1">
          <mxGeometry x="-630" y="2380" width="100" height="70" as="geometry" />
        </mxCell>
        <mxCell id="rlLohxctgZkNJzzYIbeg-13" value="workstation" style="fontColor=#0066CC;verticalAlign=top;verticalLabelPosition=bottom;labelPosition=center;align=center;html=1;fillColor=#CCCCCC;strokeColor=#6881B3;gradientColor=none;gradientDirection=north;strokeWidth=2;shape=mxgraph.networks.pc;rounded=1;shadow=0;comic=0;labelBackgroundColor=#ffffff;" vertex="1" parent="1">
          <mxGeometry x="-1361" y="3410" width="100" height="70" as="geometry" />
        </mxCell>
        <mxCell id="rlLohxctgZkNJzzYIbeg-14" value="workstation" style="fontColor=#0066CC;verticalAlign=top;verticalLabelPosition=bottom;labelPosition=center;align=center;html=1;fillColor=#CCCCCC;strokeColor=#6881B3;gradientColor=none;gradientDirection=north;strokeWidth=2;shape=mxgraph.networks.pc;rounded=1;shadow=0;comic=0;labelBackgroundColor=#ffffff;" vertex="1" parent="1">
          <mxGeometry x="-630" y="2485" width="100" height="70" as="geometry" />
        </mxCell>
        <mxCell id="rlLohxctgZkNJzzYIbeg-15" value="workstation" style="fontColor=#0066CC;verticalAlign=top;verticalLabelPosition=bottom;labelPosition=center;align=center;html=1;fillColor=#CCCCCC;strokeColor=#6881B3;gradientColor=none;gradientDirection=north;strokeWidth=2;shape=mxgraph.networks.pc;rounded=1;shadow=0;comic=0;labelBackgroundColor=#ffffff;" vertex="1" parent="1">
          <mxGeometry x="-820" y="2485" width="100" height="70" as="geometry" />
        </mxCell>
        <mxCell id="rlLohxctgZkNJzzYIbeg-16" style="edgeStyle=none;html=1;labelBackgroundColor=none;endArrow=none;strokeWidth=2;fontFamily=Verdana;fontSize=28;fontColor=#0066CC;rounded=0;strokeColor=#6881B3;" edge="1" parent="1" source="rlLohxctgZkNJzzYIbeg-17" target="rlLohxctgZkNJzzYIbeg-9">
          <mxGeometry relative="1" as="geometry" />
        </mxCell>
        <mxCell id="rlLohxctgZkNJzzYIbeg-17" value="printer" style="fontColor=#0066CC;verticalAlign=top;verticalLabelPosition=bottom;labelPosition=center;align=center;html=1;fillColor=#CCCCCC;strokeColor=#6881B3;gradientColor=none;gradientDirection=north;strokeWidth=2;shape=mxgraph.networks.printer;rounded=1;shadow=0;comic=0;labelBackgroundColor=#ffffff;" vertex="1" parent="1">
          <mxGeometry x="-260" y="2710" width="100" height="100" as="geometry" />
        </mxCell>
        <mxCell id="rlLohxctgZkNJzzYIbeg-25" style="edgeStyle=none;rounded=0;orthogonalLoop=1;jettySize=auto;html=1;exitX=0.98;exitY=0.98;exitDx=0;exitDy=0;exitPerimeter=0;entryX=0.173;entryY=-0.019;entryDx=0;entryDy=0;entryPerimeter=0;shadow=0;strokeColor=#6881B3;strokeWidth=2;endArrow=none;endFill=0;" edge="1" parent="1" source="rlLohxctgZkNJzzYIbeg-18" target="rlLohxctgZkNJzzYIbeg-9">
          <mxGeometry relative="1" as="geometry" />
        </mxCell>
        <mxCell id="rlLohxctgZkNJzzYIbeg-18" value="" style="fontColor=#0066CC;verticalAlign=top;verticalLabelPosition=bottom;labelPosition=center;align=center;html=1;outlineConnect=0;fillColor=#CCCCCC;strokeColor=#6881B3;gradientColor=none;gradientDirection=north;strokeWidth=2;shape=mxgraph.networks.phone_2;" vertex="1" parent="1">
          <mxGeometry x="-140" y="2360" width="100" height="90" as="geometry" />
        </mxCell>
        <mxCell id="rlLohxctgZkNJzzYIbeg-24" style="edgeStyle=none;rounded=0;orthogonalLoop=1;jettySize=auto;html=1;exitX=0.98;exitY=0.98;exitDx=0;exitDy=0;exitPerimeter=0;entryX=0.173;entryY=0.093;entryDx=0;entryDy=0;entryPerimeter=0;shadow=0;strokeColor=#6881B3;strokeWidth=2;endArrow=none;endFill=0;" edge="1" parent="1" source="rlLohxctgZkNJzzYIbeg-19" target="rlLohxctgZkNJzzYIbeg-9">
          <mxGeometry relative="1" as="geometry" />
        </mxCell>
        <mxCell id="rlLohxctgZkNJzzYIbeg-19" value="" style="fontColor=#0066CC;verticalAlign=top;verticalLabelPosition=bottom;labelPosition=center;align=center;html=1;outlineConnect=0;fillColor=#CCCCCC;strokeColor=#6881B3;gradientColor=none;gradientDirection=north;strokeWidth=2;shape=mxgraph.networks.phone_2;" vertex="1" parent="1">
          <mxGeometry x="-330" y="2408" width="100" height="90" as="geometry" />
        </mxCell>
        <mxCell id="rlLohxctgZkNJzzYIbeg-22" style="edgeStyle=none;rounded=0;orthogonalLoop=1;jettySize=auto;html=1;exitX=0.98;exitY=0.12;exitDx=0;exitDy=0;exitPerimeter=0;entryX=0;entryY=0.5;entryDx=0;entryDy=0;entryPerimeter=0;shadow=0;strokeColor=#6881B3;strokeWidth=2;endArrow=none;endFill=0;" edge="1" parent="1" source="rlLohxctgZkNJzzYIbeg-20" target="rlLohxctgZkNJzzYIbeg-9">
          <mxGeometry relative="1" as="geometry" />
        </mxCell>
        <mxCell id="rlLohxctgZkNJzzYIbeg-20" value="" style="fontColor=#0066CC;verticalAlign=top;verticalLabelPosition=bottom;labelPosition=center;align=center;html=1;outlineConnect=0;fillColor=#CCCCCC;strokeColor=#6881B3;gradientColor=none;gradientDirection=north;strokeWidth=2;shape=mxgraph.networks.phone_2;" vertex="1" parent="1">
          <mxGeometry x="-1630" y="3270" width="100" height="90" as="geometry" />
        </mxCell>
        <mxCell id="rlLohxctgZkNJzzYIbeg-23" style="edgeStyle=none;rounded=0;orthogonalLoop=1;jettySize=auto;html=1;exitX=0.8;exitY=0;exitDx=0;exitDy=0;exitPerimeter=0;entryX=0.1;entryY=1;entryDx=0;entryDy=0;entryPerimeter=0;shadow=0;strokeColor=#6881B3;strokeWidth=2;endArrow=none;endFill=0;" edge="1" parent="1" source="rlLohxctgZkNJzzYIbeg-21" target="rlLohxctgZkNJzzYIbeg-9">
          <mxGeometry relative="1" as="geometry" />
        </mxCell>
        <mxCell id="rlLohxctgZkNJzzYIbeg-21" value="printer" style="fontColor=#0066CC;verticalAlign=top;verticalLabelPosition=bottom;labelPosition=center;align=center;html=1;fillColor=#CCCCCC;strokeColor=#6881B3;gradientColor=none;gradientDirection=north;strokeWidth=2;shape=mxgraph.networks.printer;rounded=1;shadow=0;comic=0;labelBackgroundColor=#ffffff;" vertex="1" parent="1">
          <mxGeometry x="-1370" y="3760" width="100" height="100" as="geometry" />
        </mxCell>
        <mxCell id="rlLohxctgZkNJzzYIbeg-31" style="edgeStyle=none;rounded=0;orthogonalLoop=1;jettySize=auto;html=1;exitX=1;exitY=0.07;exitDx=0;exitDy=0;exitPerimeter=0;entryX=0.5;entryY=1;entryDx=0;entryDy=0;entryPerimeter=0;shadow=0;strokeColor=#6881B3;strokeWidth=2;endArrow=none;endFill=0;" edge="1" parent="1" source="rlLohxctgZkNJzzYIbeg-26" target="rlLohxctgZkNJzzYIbeg-9">
          <mxGeometry relative="1" as="geometry" />
        </mxCell>
        <mxCell id="rlLohxctgZkNJzzYIbeg-26" value="workstation" style="fontColor=#0066CC;verticalAlign=top;verticalLabelPosition=bottom;labelPosition=center;align=center;html=1;fillColor=#CCCCCC;strokeColor=#6881B3;gradientColor=none;gradientDirection=north;strokeWidth=2;shape=mxgraph.networks.pc;rounded=1;shadow=0;comic=0;labelBackgroundColor=#ffffff;" vertex="1" parent="1">
          <mxGeometry x="-281" y="3410" width="100" height="70" as="geometry" />
        </mxCell>
        <mxCell id="rlLohxctgZkNJzzYIbeg-32" style="edgeStyle=none;rounded=0;orthogonalLoop=1;jettySize=auto;html=1;exitX=1;exitY=0.07;exitDx=0;exitDy=0;exitPerimeter=0;entryX=0.5;entryY=1;entryDx=0;entryDy=0;entryPerimeter=0;shadow=0;strokeColor=#6881B3;strokeWidth=2;endArrow=none;endFill=0;" edge="1" parent="1" source="rlLohxctgZkNJzzYIbeg-27" target="rlLohxctgZkNJzzYIbeg-9">
          <mxGeometry relative="1" as="geometry" />
        </mxCell>
        <mxCell id="rlLohxctgZkNJzzYIbeg-27" value="workstation" style="fontColor=#0066CC;verticalAlign=top;verticalLabelPosition=bottom;labelPosition=center;align=center;html=1;fillColor=#CCCCCC;strokeColor=#6881B3;gradientColor=none;gradientDirection=north;strokeWidth=2;shape=mxgraph.networks.pc;rounded=1;shadow=0;comic=0;labelBackgroundColor=#ffffff;" vertex="1" parent="1">
          <mxGeometry x="-131" y="3410" width="100" height="70" as="geometry" />
        </mxCell>
        <mxCell id="rlLohxctgZkNJzzYIbeg-30" style="edgeStyle=none;rounded=0;orthogonalLoop=1;jettySize=auto;html=1;exitX=0.98;exitY=0.12;exitDx=0;exitDy=0;exitPerimeter=0;entryX=0.5;entryY=1;entryDx=0;entryDy=0;entryPerimeter=0;shadow=0;strokeColor=#6881B3;strokeWidth=2;endArrow=none;endFill=0;" edge="1" parent="1" source="rlLohxctgZkNJzzYIbeg-28" target="rlLohxctgZkNJzzYIbeg-9">
          <mxGeometry relative="1" as="geometry" />
        </mxCell>
        <mxCell id="rlLohxctgZkNJzzYIbeg-28" value="" style="fontColor=#0066CC;verticalAlign=top;verticalLabelPosition=bottom;labelPosition=center;align=center;html=1;outlineConnect=0;fillColor=#CCCCCC;strokeColor=#6881B3;gradientColor=none;gradientDirection=north;strokeWidth=2;shape=mxgraph.networks.phone_2;" vertex="1" parent="1">
          <mxGeometry x="-400" y="3270" width="100" height="90" as="geometry" />
        </mxCell>
        <mxCell id="rlLohxctgZkNJzzYIbeg-33" style="edgeStyle=none;rounded=0;orthogonalLoop=1;jettySize=auto;html=1;exitX=0.8;exitY=0;exitDx=0;exitDy=0;exitPerimeter=0;entryX=0.5;entryY=1;entryDx=0;entryDy=0;entryPerimeter=0;shadow=0;strokeColor=#6881B3;strokeWidth=2;endArrow=none;endFill=0;" edge="1" parent="1" source="rlLohxctgZkNJzzYIbeg-29" target="rlLohxctgZkNJzzYIbeg-9">
          <mxGeometry relative="1" as="geometry" />
        </mxCell>
        <mxCell id="rlLohxctgZkNJzzYIbeg-29" value="printer" style="fontColor=#0066CC;verticalAlign=top;verticalLabelPosition=bottom;labelPosition=center;align=center;html=1;fillColor=#CCCCCC;strokeColor=#6881B3;gradientColor=none;gradientDirection=north;strokeWidth=2;shape=mxgraph.networks.printer;rounded=1;shadow=0;comic=0;labelBackgroundColor=#ffffff;" vertex="1" parent="1">
          <mxGeometry x="-140" y="3760" width="100" height="100" as="geometry" />
        </mxCell>
        <mxCell id="rlLohxctgZkNJzzYIbeg-9" value="switch" style="fontColor=#0066CC;verticalAlign=top;verticalLabelPosition=bottom;labelPosition=center;align=center;html=1;fillColor=#CCCCCC;strokeColor=#6881B3;gradientColor=none;gradientDirection=north;strokeWidth=2;shape=mxgraph.networks.switch;rounded=1;shadow=0;comic=0;labelBackgroundColor=#ffffff;" vertex="1" parent="1">
          <mxGeometry x="98" y="2810" width="100" height="30" as="geometry" />
        </mxCell>
        <mxCell id="pZHTBgWdNV2E3V0j2XPj-1" style="edgeStyle=none;rounded=0;orthogonalLoop=1;jettySize=auto;html=1;exitX=0.5;exitY=1;exitDx=0;exitDy=0;exitPerimeter=0;shadow=0;strokeColor=#6881B3;strokeWidth=2;endArrow=none;endFill=0;" edge="1" parent="1" source="rlLohxctgZkNJzzYIbeg-9" target="pZHTBgWdNV2E3V0j2XPj-3">
          <mxGeometry relative="1" as="geometry">
            <mxPoint x="148" y="3970" as="targetPoint" />
          </mxGeometry>
        </mxCell>
      </root>
    </mxGraphModel>
  </diagram>
</mxfile>
